<svg width="1153" height="1105" viewBox="0 0 1153 1105" fill="none" xmlns="http://www.w3.org/2000/svg">
<path d="M999.938 156.941L994.503 147.994C948.664 72.3392 865.805 26.8592 778.408 32.3968C767.202 33.1103 756.063 34.6441 745.08 36.9858C665.606 53.9831 596.514 114.076 567.852 191.013C551.008 236.262 546.291 288.433 514.322 324.325C472.688 371.061 402.032 372.548 339.991 370.472C277.949 368.395 207.165 370.19 165.659 417.105C139.638 446.639 131.408 488.376 133.485 527.729C139.022 631.943 211.652 725.134 303.996 771.434C396.341 817.734 505.067 821.888 606.128 801.532C747.721 772.972 882.341 694.6 963.277 573.542C1044.21 452.484 1064.82 287.69 999.938 156.941Z" fill="#26798E"/>
<path d="M245.749 238.148C277.637 206.26 277.637 154.56 245.749 122.672C213.861 90.784 162.161 90.784 130.273 122.672C98.3856 154.56 98.3856 206.26 130.273 238.148C162.161 270.035 213.861 270.035 245.749 238.148Z" fill="#FFC172"/>
<path d="M402.317 956.617C408.341 930.893 392.371 905.155 366.646 899.131C340.922 893.107 315.184 909.077 309.16 934.802C303.136 960.526 319.106 986.264 344.831 992.288C370.555 998.312 396.293 982.342 402.317 956.617Z" fill="#26798E"/>
<path d="M1118.62 645.929C1137.3 627.247 1137.3 596.957 1118.62 578.275C1099.93 559.593 1069.64 559.593 1050.96 578.275C1032.28 596.957 1032.28 627.247 1050.96 645.929C1069.64 664.611 1099.93 664.611 1118.62 645.929Z" fill="#63CAA7"/>
<path d="M971.122 892.44C970.891 892.697 969.071 891.62 967.045 889.877C965.02 888.133 963.559 886.723 963.764 886.441C963.969 886.159 965.815 887.262 967.84 889.005C969.866 890.748 971.327 892.158 971.122 892.44Z" fill="#263238"/>
<path d="M1026.52 809.633C1026.86 801.942 1027.09 793.943 1024.63 786.56C1022.16 779.176 1016.52 772.434 1008.94 770.87C1000.3 769.075 991.426 774.536 986.555 781.919C981.684 789.303 980.043 798.301 978.608 807.018C968.737 867.157 965.103 928.155 967.763 989.041L1003.3 994.117C1018.68 930.537 1023.81 875.007 1026.52 809.633Z" fill="#63CAA7"/>
<path d="M1004.01 770.639C1004.01 770.639 1004.01 770.844 1003.86 771.203L1003.27 772.818L1000.91 778.946C1000.42 780.279 999.758 781.714 999.245 783.355L997.528 788.739C996.912 790.67 996.246 792.721 995.528 794.892C994.964 797.096 994.349 799.455 993.708 801.916C990.751 813.456 988.466 825.158 986.863 836.962C984.94 850.293 983.684 865.035 982.71 880.545C980.889 911.566 980.607 939.741 979.813 960.02C979.428 970.274 979.095 978.453 978.685 984.144C978.505 986.913 978.351 989.092 978.249 990.681L978.095 992.399C978.095 992.784 978.095 992.963 978.095 992.963C978.057 992.768 978.057 992.568 978.095 992.373C978.095 991.938 978.095 991.374 978.095 990.681C978.095 989.066 978.223 986.887 978.3 984.118C978.556 978.427 978.761 970.197 979.018 959.994C979.582 939.638 979.736 911.463 981.582 880.519C982.556 864.983 983.863 850.191 985.837 836.936C987.493 825.094 989.873 813.365 992.964 801.814C993.657 799.25 994.297 797.02 994.887 794.789C995.477 792.559 996.323 790.559 996.989 788.636C997.656 786.714 998.246 784.945 998.81 783.278C999.374 781.612 1000.07 780.202 1000.58 778.894C1001.68 776.331 1002.55 774.331 1003.14 772.844L1003.86 771.28L1004.01 770.639Z" fill="#263238"/>
<path d="M1007.3 770.665C1009.14 772.846 1010.61 775.325 1011.63 777.997C1014.35 785.313 1015.45 793.133 1014.86 800.916C1013.91 820.477 1012.17 847.448 1009.73 877.212C1007.3 906.977 1004.81 933.921 1002.71 953.379C1001.66 963.122 1000.76 970.966 1000.14 976.453C999.81 979.016 999.528 981.17 999.348 982.708L999.092 984.323C999.104 984.511 999.104 984.7 999.092 984.887C999.065 984.7 999.065 984.51 999.092 984.323C999.092 983.862 999.092 983.349 999.22 982.683C999.348 981.144 999.553 979.042 999.784 976.402C1000.32 970.838 1001.07 962.993 1001.99 953.328C1003.86 933.844 1006.32 906.925 1008.65 877.161C1010.99 847.396 1012.88 820.4 1014.04 800.916C1014.71 793.233 1013.76 785.494 1011.24 778.202C1010.16 775.577 1008.83 773.054 1007.3 770.665V770.665Z" fill="#263238"/>
<path d="M1031.86 862.343C1029.53 862.165 1027.26 861.575 1025.14 860.599C1022.89 860.011 1020.76 859.021 1018.86 857.677C1023.44 858.43 1027.84 860.012 1031.86 862.343V862.343Z" fill="#263238"/>
<path d="M1036.14 826.246C1032.07 828.974 1027.57 830.986 1022.83 832.194C1026.88 829.438 1031.38 827.424 1036.14 826.246V826.246Z" fill="#263238"/>
<path d="M1033.91 796.789C1032.19 797.276 1030.38 797.363 1028.63 797.045C1026.86 797.117 1025.11 796.774 1023.5 796.045C1025.22 795.559 1027.02 795.471 1028.78 795.789C1030.54 795.713 1032.3 796.055 1033.91 796.789Z" fill="#263238"/>
<path d="M997.374 777.894C997.066 778.099 995.528 776.151 993.913 773.587C992.754 772.117 991.932 770.411 991.503 768.588C991.811 768.409 993.349 770.331 994.964 772.921C996.119 774.384 996.942 776.081 997.374 777.894V777.894Z" fill="#263238"/>
<path d="M985.35 795.712C985.35 796.071 983.094 796.302 980.223 796.251C978.521 796.395 976.809 796.14 975.224 795.507C975.224 795.148 977.48 794.917 980.351 794.969C983.222 795.02 985.35 795.302 985.35 795.712Z" fill="#263238"/>
<path d="M976.608 831.348C974.76 831.285 972.952 830.793 971.327 829.912C968.532 828.784 966.379 827.605 966.507 827.348C968.353 827.442 970.156 827.941 971.788 828.809C974.583 829.861 976.762 831.04 976.608 831.348Z" fill="#263238"/>
<path d="M975.685 861.343C975.685 861.676 973.737 862.394 971.199 862.932C968.661 863.471 966.481 863.624 966.43 863.291C966.379 862.958 968.353 862.214 970.917 861.676C973.48 861.138 975.608 860.984 975.685 861.343Z" fill="#263238"/>
<path d="M971.609 910.361C971.609 910.72 969.532 911.386 966.84 911.873C965.178 912.38 963.417 912.468 961.713 912.13C961.713 911.771 963.789 911.104 966.507 910.617C968.16 910.109 969.913 910.021 971.609 910.361Z" fill="#263238"/>
<path d="M968.891 937.433C969.071 937.741 967.276 938.997 964.918 940.253C962.559 941.51 960.482 942.279 960.329 941.971C960.175 941.663 961.944 940.381 964.328 939.151C966.712 937.92 968.737 937.126 968.891 937.433Z" fill="#263238"/>
<path d="M991.016 968.146C990.708 968.326 989.144 966.172 987.529 963.352C986.361 961.728 985.549 959.876 985.145 957.917C985.453 957.763 987.017 959.891 988.632 962.737C989.78 964.363 990.591 966.202 991.016 968.146V968.146Z" fill="#263238"/>
<path d="M997.374 917.103C997.63 917.36 995.887 919.462 993.503 921.795C991.119 924.128 988.991 925.82 988.76 925.563C988.529 925.307 990.247 923.231 992.631 920.872C995.015 918.513 997.143 916.847 997.374 917.103Z" fill="#263238"/>
<path d="M995.964 890.313C995.708 890.543 994.092 889.236 992.375 887.364C990.657 885.493 989.452 883.801 989.811 883.57C990.17 883.339 991.683 884.647 993.4 886.518C995.118 888.39 996.22 890.159 995.964 890.313Z" fill="#263238"/>
<path d="M1000.35 856.087C1000.6 856.318 999.169 858.369 997.118 860.651C995.067 862.932 993.221 864.573 992.964 864.342C992.708 864.112 994.144 862.086 996.195 859.805C998.246 857.523 1000.09 855.856 1000.35 856.087Z" fill="#263238"/>
<path d="M1002.83 831.194C1002.58 831.45 1000.55 829.861 998.323 827.656C996.092 825.451 994.451 823.477 994.708 823.221C994.964 822.964 996.964 824.554 999.194 826.758C1001.42 828.963 1003.07 830.989 1002.83 831.194Z" fill="#263238"/>
<path d="M1007.68 797.66C1007.31 799.517 1006.53 801.268 1005.4 802.788C1003.86 805.352 1002.37 807.326 1002.07 807.146C1001.76 806.967 1002.78 804.736 1004.32 802.019C1005.86 799.301 1007.37 797.481 1007.68 797.66Z" fill="#263238"/>
<path d="M1016.78 766.563C1016.53 768.407 1015.85 770.166 1014.78 771.69C1013.37 774.254 1011.99 776.279 1011.68 776.125C1011.37 775.972 1012.27 773.716 1013.68 770.998C1015.09 768.281 1016.47 766.383 1016.78 766.563Z" fill="#263238"/>
<path d="M1027.14 780.689C1027.29 780.996 1025.88 781.996 1023.99 782.894C1022.09 783.791 1020.42 784.304 1020.27 783.97C1020.11 783.637 1021.52 782.663 1023.42 781.766C1025.32 780.868 1026.98 780.381 1027.14 780.689Z" fill="#263238"/>
<path d="M1027.39 892.44C1024.98 892.482 1022.6 891.899 1020.47 890.748C1018.18 890.002 1016.1 888.688 1014.45 886.928C1016.7 887.563 1018.88 888.422 1020.96 889.492C1023.2 890.249 1025.36 891.237 1027.39 892.44Z" fill="#263238"/>
<path d="M1023.16 916.103C1023.16 916.462 1021.09 917.154 1018.4 917.667C1016.78 918.174 1015.07 918.288 1013.4 918C1013.4 917.642 1015.45 916.949 1018.17 916.437C1019.78 915.914 1021.5 915.799 1023.16 916.103Z" fill="#263238"/>
<path d="M1017.96 956.815C1015.78 955.736 1013.92 954.099 1012.58 952.072C1010.9 950.312 1009.73 948.134 1009.19 945.765C1010.82 947.47 1012.28 949.325 1013.55 951.303C1015.17 953.015 1016.65 954.859 1017.96 956.815V956.815Z" fill="#263238"/>
<path d="M961.021 975.248C960.816 974.991 962.251 973.376 964.251 971.659C966.251 969.941 968.045 968.787 968.276 969.095C968.507 969.403 967.071 970.966 965.071 972.684C963.072 974.402 961.252 975.504 961.021 975.248Z" fill="#263238"/>
<path d="M944.664 886.672C942.357 879.468 938.024 871.085 930.487 870.982C928.24 871.104 926.067 871.828 924.196 873.077C922.324 874.327 920.823 876.056 919.848 878.084C917.792 882.108 916.803 886.592 916.976 891.107C917.909 923.165 923.382 954.929 933.23 985.451H960.867C960.56 951.889 955.095 918.574 944.664 886.672V886.672Z" fill="#63CAA7"/>
<path d="M894.647 841.449C890.801 826.066 879.264 817.632 865.856 816.863C853.653 818.991 848.91 831.04 847.449 843.346C845.988 855.651 849.833 867.957 853.602 879.776C865.72 917.719 877.854 955.67 890.006 993.63L924.411 989.861C913.567 938.869 907.26 891.8 894.647 841.449Z" fill="#63CAA7"/>
<path d="M930.487 870.982C929.58 872.204 928.79 873.509 928.128 874.879C926.716 878.791 926.276 882.988 926.847 887.108C927.385 892.363 927.975 898.696 928.846 905.643C929.718 912.591 931 920.205 932.564 928.127C935.691 944.022 939.204 958.276 941.46 968.685C942.588 973.812 943.434 978.093 944.023 981.016C944.254 982.349 944.459 983.452 944.613 984.375C944.67 984.774 944.67 985.18 944.613 985.579C944.458 985.207 944.338 984.821 944.254 984.426C944.023 983.529 943.767 982.426 943.434 981.119C942.716 978.017 941.716 973.889 940.537 968.864C937.973 958.609 934.41 944.33 931.282 928.383C929.718 920.41 928.487 912.77 927.641 905.772C927.206 902.285 926.924 898.952 926.642 895.85C926.36 892.748 926.052 889.851 925.898 887.185C925.403 882.934 926.003 878.627 927.641 874.674C928.306 873.249 929.278 871.988 930.487 870.982V870.982Z" fill="#263238"/>
<path d="M866.369 815.812C864.84 817.562 863.451 819.431 862.216 821.4C859.046 826.872 857.243 833.029 856.96 839.346C856.811 848.749 858.249 858.11 861.216 867.034C864.241 877.289 867.574 888.492 871.035 900.362C877.906 923.923 884.11 945.278 888.648 960.865C890.827 968.557 892.596 974.786 893.775 979.247C894.339 981.349 894.775 983.016 895.134 984.375C895.298 984.956 895.426 985.547 895.518 986.144C895.245 985.604 895.03 985.037 894.877 984.452L893.288 979.504C891.929 975.043 890.032 968.839 887.725 961.224C883.084 945.663 876.752 924.358 869.779 900.798C866.318 889.005 863.036 877.725 860.062 867.47C857.098 858.418 855.736 848.918 856.037 839.398C856.376 832.949 858.333 826.689 861.729 821.195C862.969 819.158 864.537 817.339 866.369 815.812Z" fill="#263238"/>
<path d="M916.899 986.118C916.604 985.581 916.347 985.024 916.13 984.452C915.669 983.349 914.951 981.888 914.156 979.632C912.516 975.402 910.413 969.172 908.26 961.353C906.106 953.533 903.927 944.125 901.851 933.613C899.774 923.102 897.646 911.514 895.364 899.388C893.083 887.262 890.237 875.828 887.212 865.599C884.545 856.522 881.194 847.66 877.188 839.09C874.474 833.316 871.373 827.731 867.907 822.375C866.728 820.452 865.651 819.042 865.01 818.042C864.65 817.552 864.325 817.038 864.036 816.504C864.48 816.919 864.876 817.383 865.215 817.888C865.933 818.862 867.061 820.195 868.317 822.093C871.965 827.372 875.196 832.926 877.983 838.705C882.095 847.266 885.524 856.138 888.237 865.24C891.563 876.389 894.318 887.701 896.492 899.132C898.774 911.284 900.928 922.846 902.876 933.383C904.824 943.919 906.952 953.303 909.003 961.122C911.054 968.941 913.028 975.197 914.541 979.452C915.233 981.606 915.9 983.247 916.259 984.375C916.53 984.933 916.744 985.517 916.899 986.118V986.118Z" fill="#263238"/>
<path d="M854.217 874.007C854.217 874.341 852.423 875.084 850.038 875.674C847.654 876.264 845.654 876.443 845.552 876.11C845.449 875.776 847.346 875.033 849.731 874.443C852.115 873.854 854.14 873.674 854.217 874.007Z" fill="#263238"/>
<path d="M850.577 850.524C848.698 851.076 846.737 851.293 844.783 851.165C842.838 851.438 840.862 851.377 838.938 850.985C842.684 849.674 846.738 849.513 850.577 850.524V850.524Z" fill="#263238"/>
<path d="M854.448 829.091C854.217 829.348 852.346 828.143 850.269 826.374C848.192 824.605 846.705 822.964 846.91 822.708C847.116 822.451 849.013 823.656 851.089 825.4C853.166 827.143 854.602 828.809 854.448 829.091Z" fill="#263238"/>
<path d="M864.856 809.223C865.215 809.223 865.113 810.992 865.062 813.017C865.01 815.042 865.062 816.709 864.651 816.76C864.241 816.811 863.728 815.145 863.805 812.966C863.882 810.787 864.6 809.146 864.856 809.223Z" fill="#263238"/>
<path d="M886.392 818.58C886.674 818.785 885.828 820.477 884.52 822.375C883.213 824.272 881.956 825.63 881.597 825.425C881.239 825.22 882.161 823.528 883.469 821.657C884.776 819.785 886.11 818.375 886.392 818.58Z" fill="#263238"/>
<path d="M900.312 842.756C900.441 843.089 898.646 844.115 896.339 845.063C894.031 846.012 892.006 846.525 891.878 846.191C891.75 845.858 893.519 844.858 895.852 843.91C898.185 842.961 900.184 842.448 900.312 842.756Z" fill="#263238"/>
<path d="M908.747 867.649C905.403 869.911 901.328 870.826 897.339 870.213C899.159 869.498 901.063 869.016 903.004 868.777C904.861 868.153 906.792 867.773 908.747 867.649V867.649Z" fill="#263238"/>
<path d="M869.984 860.574C869.651 860.574 869.984 858.753 870.522 856.728C871.061 854.703 871.932 853.165 872.266 853.267C872.599 853.37 872.266 855.087 871.727 857.113C871.189 859.138 870.317 860.676 869.984 860.574Z" fill="#263238"/>
<path d="M875.393 891.8C875.531 889.996 876.065 888.245 876.957 886.672C878.136 883.98 879.341 881.878 879.675 882.006C879.541 883.81 879.006 885.562 878.111 887.134C876.931 889.851 875.726 891.953 875.393 891.8Z" fill="#263238"/>
<path d="M862.036 900.414C860.331 900.371 858.651 899.997 857.089 899.311C854.525 898.491 852.32 897.747 852.397 897.388C854.14 897.136 855.918 897.385 857.524 898.106C860.165 898.901 862.293 900.029 862.036 900.414Z" fill="#263238"/>
<path d="M869.727 925.82C869.933 926.102 868.471 927.512 866.446 928.947C864.421 930.383 862.626 931.332 862.421 931.05C862.216 930.768 863.677 929.358 865.702 927.922C867.728 926.486 869.522 925.538 869.727 925.82Z" fill="#263238"/>
<path d="M875.906 951.2C875.906 951.534 874.163 952.277 871.83 952.841C869.497 953.405 867.548 953.61 867.471 953.251C867.394 952.892 869.215 952.175 871.548 951.611C873.881 951.047 875.829 950.867 875.906 951.2Z" fill="#263238"/>
<path d="M909.439 888.851C909.593 889.133 908.055 890.389 905.773 891.235C903.491 892.081 901.517 892.184 901.466 891.851C901.415 891.517 903.184 890.876 905.337 890.056C907.491 889.236 909.26 888.544 909.439 888.851Z" fill="#263238"/>
<path d="M914.208 928.332C914.079 928.665 912.208 928.101 910.08 927.102C907.952 926.102 906.311 924.999 906.465 924.692C906.619 924.384 908.465 924.948 910.618 925.948C912.772 926.948 914.361 928.025 914.208 928.332Z" fill="#263238"/>
<path d="M922.668 956.61C920.762 956.53 918.898 956.031 917.207 955.148C914.31 953.995 912.08 952.815 912.08 952.585C913.994 952.68 915.865 953.187 917.566 954.072C920.566 955.097 922.796 956.276 922.668 956.61Z" fill="#263238"/>
<path d="M877.265 978.76C877.085 978.427 879.341 976.914 881.956 974.863C884.571 972.812 886.571 970.967 886.853 971.223C887.135 971.479 885.443 973.787 882.725 975.863C881.203 977.308 879.315 978.309 877.265 978.76Z" fill="#263238"/>
<path d="M899.62 964.506C899.261 964.506 898.774 962.66 897.903 960.43C897.031 958.199 896.134 956.507 896.441 956.277C896.749 956.046 898.159 957.61 899.005 959.994C899.851 962.378 899.954 964.352 899.62 964.506Z" fill="#263238"/>
<path d="M893.698 930.383C893.493 930.665 892.032 929.973 890.468 928.845C888.904 927.717 887.776 926.563 887.904 926.281C888.032 925.999 889.545 926.691 891.134 927.819C892.724 928.947 893.903 930.101 893.698 930.383Z" fill="#263238"/>
<path d="M945.792 877.11C945.997 877.392 944.587 878.776 942.639 880.212C940.691 881.647 938.947 882.596 938.742 882.314C938.537 882.032 939.947 880.622 941.896 879.212C943.844 877.802 945.587 876.827 945.792 877.11Z" fill="#263238"/>
<path d="M953.637 898.593C952.103 899.288 950.382 899.459 948.741 899.08C946.023 898.798 943.972 897.875 944.075 897.542C945.677 897.359 947.299 897.455 948.869 897.824C951.458 898.106 953.612 898.234 953.637 898.593Z" fill="#263238"/>
<path d="M919.899 903.387C919.899 903.721 917.925 904.464 915.284 904.618C912.644 904.772 910.541 904.362 910.567 904.003C913.633 903.354 916.775 903.147 919.899 903.387V903.387Z" fill="#263238"/>
<path d="M922.796 883.108C922.796 883.442 920.694 883.493 918.438 882.442C916.182 881.391 914.874 879.878 915.131 879.571C915.387 879.263 916.925 880.365 918.976 881.288C921.027 882.211 922.822 882.75 922.796 883.108Z" fill="#263238"/>
<path d="M956.534 921.615C956.355 921.923 954.227 920.923 951.817 919.411C949.407 917.898 947.587 916.411 947.792 916.103C947.997 915.796 950.074 916.821 952.484 918.334C954.893 919.846 956.714 921.333 956.534 921.615Z" fill="#263238"/>
<path d="M1038.88 981.862H858.832V1013.78H1038.88V981.862Z" fill="#FFC172"/>
<path d="M872.266 1007.42L894.16 1102.79H1001.48L1025.42 1007.42H872.266Z" fill="#FFC172"/>
<path d="M1038.78 1013.81C1038.78 1014.14 998.169 1014.45 948.074 1014.45C897.979 1014.45 857.37 1014.14 857.37 1013.81C857.37 1013.47 897.979 1013.16 948.074 1013.16C998.169 1013.16 1038.78 1013.45 1038.78 1013.81Z" fill="#263238"/>
<path d="M938.64 904.08C938.358 904.285 937.127 902.849 935.896 900.875C934.666 898.901 933.922 897.209 934.23 897.004C934.538 896.799 935.743 898.26 936.973 900.208C938.204 902.157 938.947 903.9 938.64 904.08Z" fill="#263238"/>
<path d="M938.717 929.768C938.383 929.768 938.717 927.486 939.665 924.922C940.614 922.359 941.46 920.359 941.793 920.462C942.126 920.564 941.793 922.743 940.845 925.307C939.896 927.871 939.05 929.87 938.717 929.768Z" fill="#263238"/>
<path d="M947.51 956.815C947.177 956.969 945.844 954.815 944.485 952.021C943.478 950.395 942.847 948.564 942.639 946.663C942.947 946.509 944.28 948.662 945.639 951.457C946.633 953.091 947.27 954.917 947.51 956.815V956.815Z" fill="#263238"/>
<path d="M928.487 978.401C928.231 978.17 929.282 976.504 930.872 974.684C932.461 972.864 933.974 971.556 934.23 971.787C934.486 972.018 933.435 973.684 931.846 975.504C930.256 977.324 928.744 978.632 928.487 978.401Z" fill="#263238"/>
<path d="M924.488 939.023C924.488 939.382 922.693 939.356 920.617 939.023C918.54 938.689 916.925 938.074 916.976 937.741C917.028 937.408 918.771 937.408 920.848 937.741C922.924 938.074 924.565 938.689 924.488 939.023Z" fill="#263238"/>
<path d="M651.916 290.1L531.909 250.875L418.952 184.193L411.082 223.341L505.503 299.406L629.278 342.835L651.916 290.1Z" fill="#A86E67"/>
<path d="M355.27 145.251C361.064 144.533 393.854 163.427 393.854 163.427L398.263 161.299C400.151 160.367 402.209 159.832 404.312 159.727C406.414 159.622 408.516 159.95 410.486 160.69C412.457 161.43 414.255 162.567 415.768 164.03C417.282 165.493 418.479 167.251 419.286 169.196C424.541 181.835 430.284 197.781 430.284 197.781L412.774 221.751L405.083 224.315C398.417 227.622 384.573 218.008 375.446 210.933C366.32 203.857 371.755 198.371 371.755 198.371C366.474 189.167 375.395 186.552 375.395 186.552C370.986 178.246 379.318 173.733 379.318 173.733C379.318 173.733 357.911 160.479 352.117 154.89C346.323 149.301 349.553 145.969 355.27 145.251Z" fill="#A86E67"/>
<path d="M375.652 186.219C377.484 187.861 379.42 189.385 381.446 190.782C382.44 191.559 383.485 192.27 384.573 192.91C385.885 193.588 387.295 194.055 388.752 194.294C390.382 194.642 392.074 194.58 393.674 194.115C394.55 193.816 395.353 193.338 396.033 192.712C396.713 192.085 397.254 191.323 397.622 190.474C397.947 189.551 398 188.555 397.776 187.603C397.545 186.728 397.125 185.914 396.546 185.219C395.481 184.01 394.314 182.895 393.059 181.886C391.015 180.142 388.847 178.548 386.573 177.117C385.041 176.175 383.458 175.319 381.83 174.554C381.254 174.217 380.632 173.967 379.984 173.81C379.984 173.964 382.42 175.246 386.163 177.81C388.342 179.309 390.43 180.936 392.418 182.681C393.599 183.665 394.697 184.746 395.7 185.911C396.213 186.472 396.569 187.159 396.731 187.902C396.893 188.645 396.856 189.417 396.623 190.141C396.302 190.841 395.844 191.47 395.276 191.99C394.708 192.509 394.041 192.909 393.315 193.166C391.884 193.593 390.37 193.664 388.906 193.371C387.546 193.164 386.225 192.758 384.983 192.166C383.907 191.577 382.871 190.918 381.881 190.192C379.907 188.713 377.825 187.385 375.652 186.219V186.219Z" fill="#7B4B45"/>
<path d="M371.062 196.807C371.062 196.807 371.473 197.371 372.37 198.242C373.267 199.114 374.575 200.293 376.318 201.652C378.381 203.276 380.693 204.557 383.163 205.446C384.658 206.016 386.261 206.244 387.855 206.113C388.776 206.087 389.67 205.792 390.425 205.264C391.18 204.736 391.765 203.999 392.106 203.142C392.446 202.286 392.529 201.349 392.343 200.446C392.157 199.543 391.711 198.715 391.059 198.063C390.077 196.855 388.978 195.747 387.778 194.756C385.844 193.047 383.825 191.439 381.727 189.936C379.933 188.654 378.42 187.68 377.369 187.065C376.846 186.693 376.266 186.407 375.652 186.219C375.652 186.219 377.831 187.834 381.266 190.551C382.984 191.884 384.983 193.551 387.111 195.499C388.246 196.455 389.285 197.52 390.213 198.678C390.7 199.218 391.039 199.875 391.196 200.585C391.354 201.295 391.324 202.034 391.111 202.729C390.795 203.381 390.315 203.94 389.716 204.349C389.118 204.759 388.423 205.004 387.701 205.062C386.266 205.198 384.82 205.005 383.471 204.498C381.082 203.68 378.827 202.514 376.78 201.037C373.242 198.499 371.191 196.679 371.062 196.807Z" fill="#7B4B45"/>
<path d="M370.729 205.985C371.605 207.484 372.763 208.798 374.139 209.856C375.567 211.086 377.123 212.161 378.779 213.061C379.766 213.626 380.816 214.073 381.907 214.394C382.553 214.58 383.234 214.61 383.894 214.481C384.554 214.351 385.173 214.067 385.701 213.65C386.193 213.156 386.53 212.529 386.671 211.846C386.812 211.163 386.751 210.454 386.496 209.805C386.062 208.729 385.427 207.746 384.624 206.908C383.344 205.519 381.887 204.304 380.292 203.293C378.919 202.275 377.48 201.35 375.985 200.524C377.091 201.847 378.397 202.989 379.856 203.908C381.324 204.975 382.673 206.195 383.881 207.549C384.573 208.297 385.12 209.166 385.496 210.112C385.649 210.546 385.681 211.013 385.591 211.464C385.501 211.915 385.291 212.334 384.983 212.676C384.586 212.985 384.12 213.194 383.625 213.288C383.131 213.382 382.621 213.356 382.138 213.214C381.133 212.915 380.162 212.511 379.241 212.009C377.613 211.195 376.067 210.225 374.626 209.112C372.139 207.369 370.883 205.857 370.729 205.985Z" fill="#7B4B45"/>
<path d="M398.263 161.299C392.085 164.453 383.138 169.452 377.574 173.169C378.061 177.297 382.702 179.963 386.752 179.835C390.903 179.368 394.861 177.831 398.238 175.374C397.578 177.448 397.357 179.636 397.591 181.8C397.825 183.964 398.508 186.055 399.596 187.939C400.685 189.824 402.154 191.46 403.911 192.745C405.668 194.029 407.674 194.932 409.8 195.397" fill="#A86E67"/>
<path d="M409.8 195.397C407.5 194.635 405.349 193.481 403.442 191.987C401.362 190.272 399.777 188.033 398.853 185.501C397.702 182.287 397.63 178.786 398.648 175.528L399.058 174.246L397.904 174.938C394.826 177.068 391.331 178.518 387.65 179.194C383.189 179.861 378.369 177.041 377.908 173.118L377.677 173.58C383.471 169.734 388.675 166.811 392.341 164.684L396.597 162.12C397.126 161.859 397.624 161.541 398.084 161.171C397.514 161.321 396.964 161.536 396.443 161.812C395.418 162.299 393.879 163.043 392.034 164.017C388.291 165.991 383.035 168.811 377.113 172.631L376.882 172.785V173.093C377.054 174.249 377.487 175.351 378.149 176.315C378.811 177.279 379.684 178.08 380.702 178.656C382.812 179.944 385.301 180.469 387.752 180.143C391.554 179.435 395.157 177.914 398.315 175.682L397.546 175.092C396.495 178.565 396.621 182.287 397.904 185.68C398.971 188.337 400.744 190.651 403.032 192.372C404.477 193.515 406.119 194.384 407.877 194.935C408.483 195.209 409.136 195.366 409.8 195.397Z" fill="#7B4B45"/>
<path d="M559.392 1015.16L576.671 1070.77C576.671 1070.77 516.988 1091.92 516.86 1103.15L634.277 1101.66L613.947 1009.14L559.392 1015.16Z" fill="#455A64"/>
<g opacity="0.6">
<path opacity="0.6" d="M612.691 1063.87C613.836 1064.17 614.833 1064.87 615.495 1065.85C616.157 1066.82 616.436 1068.01 616.28 1069.18C616.033 1070.31 615.368 1071.31 614.418 1071.98C613.468 1072.64 612.302 1072.93 611.153 1072.77C609.946 1072.45 608.896 1071.7 608.203 1070.66C607.509 1069.62 607.218 1068.37 607.384 1067.13C607.763 1065.95 608.584 1064.97 609.674 1064.39C610.765 1063.8 612.04 1063.66 613.229 1064" fill="white"/>
</g>
<g opacity="0.6">
<path opacity="0.6" d="M634.277 1101.66L632.226 1092.23L520.526 1097.56C519.334 1098.2 518.321 1099.12 517.577 1100.25C516.834 1101.38 516.385 1102.68 516.27 1104.02L634.277 1101.66Z" fill="white"/>
</g>
<path d="M574.748 1070.28C574.748 1070.85 577.671 1070.98 580.568 1072.67C583.465 1074.36 585.106 1076.69 585.695 1076.44C586.285 1076.18 585.208 1072.92 581.645 1070.93C578.081 1068.93 574.594 1069.77 574.748 1070.28Z" fill="#263238"/>
<path d="M562.699 1075.98C562.699 1076.54 565.263 1077.39 567.185 1079.72C569.108 1082.05 569.954 1084.59 570.518 1084.51C571.082 1084.44 571.287 1081.21 568.672 1078.36C566.057 1075.51 562.673 1075.44 562.699 1075.98Z" fill="#263238"/>
<path d="M556.444 1091.05C556.982 1091.05 557.623 1088.26 556.008 1085.18C554.393 1082.1 551.624 1081.03 551.419 1081.51C551.214 1082 552.931 1083.59 554.239 1086.13C555.546 1088.67 555.88 1091.02 556.444 1091.05Z" fill="#263238"/>
<path d="M575.158 1056.41C575.415 1056.93 578.004 1056 581.26 1056.06C584.516 1056.11 587.08 1057 587.362 1056.49C587.644 1055.98 585.106 1054.06 581.286 1054.06C577.466 1054.06 574.774 1055.98 575.158 1056.41Z" fill="#263238"/>
<path d="M574.261 1044.21C576.209 1044.66 578.242 1044.55 580.132 1043.9C582.229 1043.41 584.261 1042.67 586.182 1041.7C587.312 1041.11 588.407 1040.46 589.464 1039.75C590.102 1039.35 590.673 1038.84 591.156 1038.26C591.483 1037.82 591.659 1037.29 591.659 1036.74C591.659 1036.19 591.483 1035.65 591.156 1035.21C590.848 1034.83 590.457 1034.53 590.012 1034.32C589.568 1034.12 589.082 1034.02 588.592 1034.03C587.848 1034.05 587.111 1034.18 586.413 1034.44C585.174 1034.81 583.973 1035.29 582.824 1035.88C580.884 1036.87 579.111 1038.16 577.568 1039.7C575.005 1042.26 574.159 1044.54 574.364 1044.65C574.569 1044.75 575.876 1042.96 578.543 1040.75C580.105 1039.46 581.828 1038.37 583.67 1037.52C584.75 1037.04 585.864 1036.63 587.003 1036.32C588.233 1035.93 589.285 1035.88 589.567 1036.32C589.849 1036.75 589.72 1036.6 589.567 1036.96C589.221 1037.38 588.805 1037.75 588.336 1038.03C587.365 1038.74 586.355 1039.39 585.311 1039.98C583.534 1040.99 581.672 1041.85 579.748 1042.54C577.883 1042.98 576.05 1043.53 574.261 1044.21Z" fill="#263238"/>
<path d="M575.158 1045.01C575.389 1045.01 576.415 1042.98 576.44 1039.26C576.425 1037.08 576.044 1034.91 575.312 1032.85C574.864 1031.64 574.297 1030.47 573.62 1029.37C573.274 1028.61 572.734 1027.95 572.055 1027.47C571.375 1026.98 570.58 1026.68 569.749 1026.6C569.223 1026.63 568.717 1026.81 568.294 1027.13C567.871 1027.44 567.548 1027.87 567.365 1028.37C567.092 1029.06 566.928 1029.8 566.878 1030.55C566.742 1031.86 566.802 1033.19 567.057 1034.49C567.505 1036.68 568.473 1038.72 569.877 1040.44C572.441 1043.37 574.748 1043.93 574.8 1043.72C574.851 1043.52 572.902 1042.42 571.005 1039.6C569.916 1037.96 569.191 1036.1 568.877 1034.16C568.71 1033.04 568.71 1031.9 568.877 1030.78C568.877 1029.52 569.39 1028.5 569.877 1028.6C570.364 1028.7 571.492 1029.44 572.031 1030.42C572.659 1031.4 573.2 1032.44 573.646 1033.52C574.392 1035.38 574.876 1037.33 575.082 1039.31C575.158 1042.75 574.723 1044.93 575.158 1045.01Z" fill="#263238"/>
<path d="M195.244 613.869L150.149 654.299C150.149 654.299 97.3878 619.202 88.338 625.842L160.122 718.853L232.956 658.836L195.244 613.869Z" fill="#455A64"/>
<g opacity="0.6">
<path opacity="0.6" d="M177.298 678.884C177.795 679.986 177.857 681.235 177.472 682.381C177.086 683.527 176.283 684.485 175.222 685.063C174.157 685.569 172.938 685.643 171.82 685.271C170.701 684.898 169.771 684.107 169.223 683.063C168.75 681.907 168.715 680.617 169.126 679.437C169.536 678.257 170.364 677.267 171.453 676.654C172.624 676.252 173.905 676.318 175.028 676.839C176.151 677.36 177.029 678.295 177.478 679.448" fill="white"/>
</g>
<g opacity="0.6">
<path opacity="0.6" d="M160.045 718.852L167.377 712.802L95.0292 625.406C93.8049 624.853 92.4638 624.608 91.1231 624.693C89.7825 624.778 88.483 625.19 87.3381 625.893L160.045 718.852Z" fill="white"/>
</g>
<path d="M149.38 652.401C148.969 652.786 150.585 655.145 150.995 658.503C151.405 661.861 150.482 664.553 150.995 664.81C151.508 665.066 153.558 662.246 152.969 658.247C152.379 654.247 149.713 651.966 149.38 652.401Z" fill="#263238"/>
<path d="M137.587 646.197C137.074 646.454 137.92 648.992 137.305 652.042C136.689 655.093 135.074 657.17 135.459 657.58C135.843 657.99 138.561 656.196 139.279 652.453C139.996 648.71 138.022 645.864 137.587 646.197Z" fill="#263238"/>
<path d="M121.794 650.248C122.025 650.735 124.742 649.504 126.204 646.377C127.665 643.249 126.922 640.378 126.409 640.48C125.896 640.583 125.665 643.044 124.409 645.608C123.153 648.171 121.384 649.786 121.794 650.248Z" fill="#263238"/>
<path d="M160.686 644.351C160.429 644.864 162.736 646.377 164.634 649.017C166.531 651.658 167.377 654.145 167.941 654.145C168.505 654.145 168.53 650.889 166.249 647.812C163.967 644.736 160.865 643.839 160.686 644.351Z" fill="#263238"/>
<path d="M169.94 636.353C169.761 636.506 170.94 638.481 173.709 640.865C175.364 642.25 177.18 643.429 179.118 644.377C180.26 644.95 181.443 645.438 182.656 645.838C183.364 646.107 184.107 646.271 184.861 646.325C185.423 646.353 185.979 646.195 186.442 645.875C186.906 645.555 187.251 645.092 187.425 644.556C187.548 644.079 187.556 643.579 187.449 643.098C187.342 642.617 187.123 642.168 186.81 641.788C186.336 641.217 185.783 640.716 185.169 640.301C184.135 639.519 183.028 638.841 181.862 638.275C179.903 637.334 177.81 636.703 175.657 636.404C173.707 635.932 171.659 636.066 169.787 636.788C169.787 637.122 172.017 636.994 175.401 637.788C177.356 638.253 179.243 638.968 181.016 639.916C182.061 640.478 183.056 641.13 183.99 641.865C185.041 642.608 185.707 643.403 185.502 644.018C185.502 644.223 185.348 644.3 184.912 644.326C184.361 644.274 183.819 644.153 183.297 643.967C182.154 643.614 181.033 643.195 179.939 642.711C178.08 641.888 176.304 640.892 174.632 639.737C171.709 637.763 170.094 636.148 169.94 636.353Z" fill="#263238"/>
<path d="M169.787 637.455C169.787 637.686 172.145 637.224 175.145 635.019C176.884 633.704 178.384 632.1 179.58 630.277C180.286 629.195 180.879 628.044 181.349 626.841C181.765 626.116 181.984 625.294 181.984 624.457C181.984 623.62 181.765 622.799 181.349 622.073C181.002 621.679 180.551 621.39 180.048 621.241C179.544 621.091 179.009 621.086 178.503 621.227C177.787 621.435 177.105 621.745 176.478 622.15C175.335 622.842 174.306 623.707 173.427 624.713C171.94 626.362 170.884 628.352 170.351 630.507C170.011 631.467 169.866 632.485 169.923 633.502C169.981 634.518 170.239 635.514 170.684 636.429C170.904 634.572 171.246 632.73 171.709 630.918C172.369 629.065 173.408 627.371 174.76 625.944C175.516 625.138 176.379 624.44 177.324 623.867C178.401 623.201 179.477 622.919 179.683 623.355C179.859 623.809 179.935 624.297 179.904 624.784C179.873 625.272 179.736 625.746 179.503 626.175C179.097 627.27 178.591 628.326 177.99 629.328C176.954 631.041 175.686 632.603 174.222 633.968C171.684 636.353 169.658 637.173 169.787 637.455Z" fill="#263238"/>
<path d="M733.595 310.763C733.082 312.865 670.964 361.729 661.811 374.984C652.659 388.238 630.739 438.538 630.739 438.538L591.592 478.813L693.217 530.523L825.837 400.108L846.91 347.373L816.633 307.558L750.464 296.919L733.595 310.763Z" fill="white"/>
<path d="M745.055 301.431L652.044 282.28L621.459 342.63L707.958 382.316L745.055 301.431Z" fill="white"/>
<g opacity="0.3">
<path opacity="0.3" d="M701.728 504.681C694.991 457.346 684.489 410.625 670.323 364.96L665.196 374.291L678.732 506.271C678.9 510.983 680.044 515.61 682.09 519.858C682.915 522.004 684.437 523.811 686.413 524.988C688.388 526.165 690.701 526.645 692.981 526.349C695.262 526.053 697.376 525 698.986 523.358C700.595 521.715 701.606 519.58 701.856 517.295C702.617 513.12 702.573 508.839 701.728 504.681V504.681Z" fill="black"/>
</g>
<path d="M167.531 615.151C167.531 615.151 260.542 539.317 300.022 502.348C305.663 497.099 312.469 493.263 319.88 491.155C327.292 489.047 335.098 488.727 342.657 490.222L568.493 503.656L514.296 630.712L355.347 584.566L227.162 686.499L167.531 615.151Z" fill="#263238"/>
<path d="M591.669 478.916C589.72 479.557 525.013 534.343 522.449 567.517C522.449 567.517 463.766 808.787 468.996 832.399C474.226 856.01 557.008 1054.06 557.008 1054.06L632.406 1034.03L583.003 834.193L635.585 686.652C635.585 686.652 679.834 665.707 691.627 623.073C703.42 580.438 693.268 530.626 693.268 530.626L591.669 478.916Z" fill="#263238"/>
<path d="M549.957 533.805C549.808 534.253 549.592 534.677 549.316 535.061C548.778 535.984 548.112 537.138 547.266 538.548C545.445 541.521 542.933 545.905 539.933 551.366C536.934 556.827 533.575 563.467 530.14 570.978C526.705 578.49 523.269 586.873 519.885 595.821C513.348 613.766 508.682 630.379 505.477 642.454C503.913 648.351 502.657 653.196 501.734 656.76C501.298 658.349 500.965 659.631 500.683 660.657C500.598 661.122 500.443 661.571 500.222 661.99C500.226 661.521 500.295 661.055 500.427 660.605C500.632 659.554 500.888 658.247 501.222 656.657C501.939 653.222 503.067 648.3 504.554 642.224C508.43 626.346 513.172 610.693 518.757 595.333C522.064 586.361 525.577 577.952 529.012 570.44C532.447 562.928 535.985 556.314 539.087 550.879C542.189 545.444 544.83 541.111 546.778 538.214L549.034 534.881C549.301 534.489 549.611 534.128 549.957 533.805V533.805Z" fill="#455A64"/>
<path d="M355.732 585.95C354.326 584.606 353.118 583.07 352.142 581.387C349.532 577.495 347.259 573.386 345.349 569.107C343.412 564.844 341.835 560.428 340.631 555.904C340.027 554.054 339.674 552.131 339.58 550.187C339.991 550.187 342.144 558.698 346.554 568.568C350.963 578.439 356.091 585.72 355.732 585.95Z" fill="#455A64"/>
<path d="M680.27 555.007C679.094 555.69 677.859 556.265 676.578 556.724C673.141 558.126 669.612 559.29 666.016 560.211C660.657 561.613 655.115 562.184 649.583 561.903C642.735 561.602 636.091 559.487 630.329 555.776C624.607 551.914 620.318 546.273 618.126 539.727C616.642 535.296 616.194 530.584 616.816 525.953C617.439 521.322 619.114 516.895 621.715 513.013C622.273 512.168 622.899 511.371 623.587 510.629C624.048 510.116 624.305 509.86 624.33 509.885C624.356 509.911 623.51 511.065 622.151 513.295C620.272 516.466 618.945 519.934 618.229 523.55C617.149 528.849 617.522 534.34 619.305 539.445C621.448 545.717 625.58 551.118 631.073 554.827C636.654 558.406 643.065 560.482 649.685 560.852C655.1 561.155 660.531 560.68 665.811 559.442C669.396 558.631 672.932 557.613 676.399 556.391C677.648 555.822 678.943 555.359 680.27 555.007V555.007Z" fill="#455A64"/>
<path d="M586.259 490.581C586.259 490.581 586.746 490.427 587.592 490.581C588.825 490.87 589.947 491.512 590.823 492.427C591.503 493.115 591.993 493.968 592.245 494.903C592.497 495.838 592.501 496.822 592.258 497.759C592.005 498.902 591.394 499.935 590.515 500.707C590.027 501.132 589.456 501.45 588.838 501.64C588.219 501.83 587.568 501.888 586.926 501.81C585.638 501.679 584.447 501.065 583.593 500.092C583.2 499.63 582.912 499.088 582.748 498.504C582.584 497.92 582.549 497.307 582.644 496.708C582.82 495.762 583.216 494.87 583.799 494.104C584.382 493.338 585.137 492.72 586.003 492.298C587.094 491.745 588.274 491.39 589.49 491.247C590.336 491.247 590.797 491.247 590.823 491.247C590.848 491.247 588.951 491.734 586.464 493.145C585.789 493.543 585.21 494.085 584.767 494.731C584.324 495.378 584.028 496.114 583.901 496.888C583.858 497.336 583.909 497.789 584.048 498.218C584.187 498.647 584.412 499.043 584.71 499.381C585.008 499.72 585.371 499.994 585.779 500.187C586.186 500.379 586.629 500.487 587.08 500.502C588.003 500.572 588.921 500.303 589.661 499.747C590.402 499.19 590.915 498.384 591.105 497.477C591.322 496.719 591.346 495.919 591.176 495.149C591.006 494.379 590.647 493.664 590.13 493.068C589.049 491.951 587.724 491.1 586.259 490.581V490.581Z" fill="#455A64"/>
<path d="M685.064 307.174L640.892 325.915C639.522 326.502 638.368 327.501 637.592 328.774C636.815 330.046 636.455 331.529 636.559 333.016L639.251 371.471C639.343 372.634 639.716 373.756 640.337 374.743C640.958 375.729 641.81 376.55 642.818 377.135C643.827 377.72 644.962 378.052 646.127 378.101C647.292 378.151 648.451 377.917 649.506 377.419L729.314 338.374C730.571 337.761 731.622 336.794 732.337 335.591C733.052 334.389 733.4 333.004 733.339 331.606L731.749 296.868C731.699 295.699 731.362 294.56 730.769 293.551C730.175 292.543 729.344 291.695 728.347 291.083C727.35 290.47 726.218 290.112 725.05 290.039C723.882 289.966 722.714 290.18 721.648 290.664L685.064 307.174Z" fill="#E0E0E0"/>
<path d="M685.064 307.174C685.064 307.174 685.269 307.02 685.731 306.789L687.73 305.815L695.422 302.175L707.804 296.509L715.495 292.971L719.725 291.048C721.205 290.198 722.866 289.715 724.571 289.638C726.458 289.66 728.271 290.374 729.666 291.646C731.06 292.917 731.939 294.657 732.134 296.535C732.313 300.201 732.518 303.995 732.698 307.917C732.877 311.84 733.082 315.916 733.287 320.095L733.595 326.453L733.749 329.709C733.852 330.843 733.852 331.984 733.749 333.119C733.585 334.331 733.134 335.487 732.434 336.49C731.734 337.493 730.805 338.315 729.724 338.887L723.853 341.938L711.034 348.167L684.295 361.268L657.504 374.343L651.095 377.47C650.011 378.092 648.834 378.533 647.609 378.778C646.351 378.981 645.062 378.857 643.866 378.419C642.693 378.023 641.633 377.351 640.777 376.458C639.92 375.565 639.291 374.479 638.943 373.292C638.68 372.147 638.534 370.979 638.507 369.805L638.277 366.498C637.687 357.679 637.123 349.295 636.585 341.425C636.465 339.477 636.337 337.554 636.2 335.657C636.2 334.708 636.072 333.759 636.021 332.811C635.988 331.822 636.154 330.837 636.508 329.914C637.196 328.105 638.542 326.621 640.276 325.761L645.019 323.735L674.245 311.532L682.244 308.302L684.321 307.482C684.555 307.367 684.806 307.289 685.064 307.251L684.372 307.61L682.347 308.533L674.476 312.019L645.378 324.607L640.712 326.632C639.214 327.393 638.059 328.694 637.482 330.273C637.002 332.001 636.923 333.816 637.251 335.58C637.405 337.477 637.533 339.4 637.687 341.348C638.251 349.193 638.866 357.576 639.507 366.395C639.507 367.498 639.661 368.6 639.764 369.728C639.767 370.808 639.896 371.883 640.148 372.933C640.433 373.943 640.96 374.868 641.684 375.628C642.408 376.387 643.306 376.958 644.301 377.291C645.302 377.654 646.38 377.751 647.429 377.573C648.511 377.346 649.549 376.948 650.506 376.394L656.94 373.24L683.705 360.14L710.47 347.065L723.289 340.861L729.442 337.861C730.348 337.378 731.127 336.687 731.715 335.845C732.303 335.003 732.684 334.033 732.826 333.016C732.903 331.958 732.903 330.895 732.826 329.837L732.672 326.607C732.672 324.453 732.493 322.325 732.39 320.223C732.236 316.044 732.057 311.994 731.877 308.046C731.698 304.097 731.544 300.354 731.39 296.714C731.228 295.081 730.473 293.564 729.269 292.449C728.064 291.335 726.493 290.699 724.853 290.664C723.284 290.724 721.753 291.164 720.392 291.946L716.136 293.817L708.445 297.252L695.652 302.662L687.961 306.071L685.885 306.918L685.064 307.174Z" fill="#263238"/>
<path d="M665.708 367.164C665.784 363.158 666.283 359.171 667.195 355.269C668.836 347.578 683.757 322.197 683.757 322.197V308.892L676.758 307.225C676.758 307.225 676.604 299.534 682.449 297.868C682.449 297.868 687.32 290.715 690.884 291.381C690.884 291.381 690.55 286.818 700.933 289.1C711.316 291.381 713.265 295.586 713.265 295.586L709.573 291.125C709.158 290.621 708.891 290.011 708.803 289.363C708.716 288.716 708.81 288.057 709.077 287.46C709.343 286.863 709.77 286.353 710.311 285.986C710.852 285.619 711.484 285.41 712.137 285.382C712.545 285.33 712.96 285.383 713.342 285.536C714.316 286.177 724.058 293.227 724.058 293.227L726.006 307.174L718.315 336.349L698.139 362.96L696.575 379.368L665.811 367.062" fill="#A86E67"/>
<path d="M665.836 366.241C665.836 366.241 686.526 484.941 693.524 505.912C700.523 526.883 703.779 534.728 724.52 534.779C747.593 534.779 822.889 441.768 822.889 441.768L773.178 401.672L730.954 461.534L698.011 362.934L665.836 366.241Z" fill="#A86E67"/>
<path d="M845.911 345.988C845.911 345.988 851.038 350.398 854.961 365.472C859.934 384.7 850.243 406.902 837.656 423.925C826.939 438.435 808.019 466.2 808.019 466.2L754.438 423.412C754.438 423.412 782.639 386.033 788.74 378.368C803.866 359.601 845.911 345.988 845.911 345.988Z" fill="white"/>
<path d="M686.295 468.533C686.283 468.752 686.24 468.968 686.167 469.174C686.038 469.661 685.859 470.276 685.679 471.02C684.877 473.339 683.718 475.518 682.244 477.48C679.896 480.576 676.971 483.188 673.63 485.171C669.174 487.78 664.224 489.43 659.094 490.017C652.84 490.801 646.492 489.824 640.764 487.197C637.565 485.686 634.764 483.447 632.585 480.659C630.328 477.695 628.658 474.328 627.663 470.738C625.622 463.066 625.151 455.061 626.279 447.203C626.805 443.046 627.767 438.956 629.15 435C630.462 430.76 633.174 427.091 636.841 424.591C638.783 423.395 641.021 422.765 643.302 422.771C645.618 422.781 647.837 423.702 649.48 425.335C650.291 426.125 650.936 427.07 651.376 428.113C651.817 429.157 652.044 430.278 652.044 431.411C651.996 432.547 651.672 433.654 651.101 434.637C650.529 435.619 649.726 436.448 648.762 437.051C646.907 438.215 644.704 438.696 642.532 438.41C640.442 438.074 638.498 437.129 636.944 435.692C634.076 432.895 632.218 429.225 631.662 425.258C630.996 421.489 630.868 417.849 630.56 414.336C630.252 410.824 630.047 407.363 629.791 404.082C629.278 397.442 628.817 391.263 628.406 385.623C627.884 380.513 627.661 375.377 627.74 370.241C627.818 366.336 628.745 362.496 630.457 358.986C631.563 356.783 633.117 354.836 635.021 353.269C635.676 352.731 636.4 352.283 637.174 351.936C637.174 351.936 636.457 352.398 635.2 353.5C633.411 355.177 631.996 357.212 631.047 359.473C629.41 362.93 628.536 366.698 628.483 370.523C628.487 375.594 628.778 380.661 629.355 385.7C629.817 391.34 630.329 397.519 630.893 404.133C631.15 407.466 631.432 410.875 631.739 414.388C632.047 417.9 632.201 421.592 632.867 425.181C633.389 428.875 635.12 432.292 637.79 434.897C639.143 436.169 640.85 437.001 642.686 437.282C644.555 437.513 646.446 437.097 648.044 436.102C648.809 435.605 649.441 434.931 649.888 434.136C650.334 433.341 650.581 432.45 650.608 431.539C650.603 430.58 650.405 429.632 650.027 428.751C649.648 427.87 649.096 427.075 648.403 426.411C646.891 425.102 644.983 424.338 642.984 424.24C640.986 424.142 639.013 424.717 637.379 425.873C633.936 428.185 631.399 431.618 630.201 435.59C628.858 439.459 627.905 443.452 627.355 447.511C626.247 455.211 626.683 463.054 628.637 470.584C629.572 474.039 631.155 477.284 633.303 480.147C635.346 482.801 637.979 484.943 640.994 486.402C646.531 488.974 652.668 489.976 658.735 489.299C663.755 488.783 668.611 487.22 672.989 484.71C676.295 482.817 679.21 480.311 681.578 477.327C683.655 474.696 685.252 471.719 686.295 468.533V468.533Z" fill="#455A64"/>
<path d="M637.738 350.013L632.996 353.397L633.636 356.525L638.046 354.295L637.738 350.013Z" fill="#263238"/>
<path d="M798.815 362.268C798.376 363.147 797.825 363.966 797.175 364.703L792.304 371.087C788.176 376.445 782.51 383.905 776.409 392.186C770.307 400.467 764.923 408.158 761.027 413.695L756.412 420.233C755.893 421.076 755.283 421.858 754.592 422.566C754.949 421.659 755.414 420.798 755.976 420.002C756.95 418.387 758.54 416.054 760.258 413.208C763.949 407.543 769.205 399.8 775.332 391.468C781.459 383.136 787.253 375.778 791.56 370.548C793.714 367.985 795.508 365.857 796.688 364.447C797.313 363.643 798.027 362.912 798.815 362.268V362.268Z" fill="#263238"/>
<path d="M840.783 345.347C836.198 346 831.654 346.907 827.17 348.065C822.799 349.657 818.52 351.488 814.351 353.551C817.856 350.325 822.099 348.01 826.708 346.809C831.212 345.186 836.043 344.685 840.783 345.347V345.347Z" fill="#263238"/>
<path d="M817.018 125.126C826.452 116.691 847.218 120.28 851.525 126.92C855.413 125.553 859.678 125.739 863.432 127.439C867.186 129.14 870.139 132.223 871.676 136.047L893.416 143.225C897.239 144.126 900.769 145.988 903.671 148.635C906.234 151.506 907.183 156.326 904.465 159.223C912.157 162.069 913.951 174.067 907.542 179.092C908.199 180.042 908.656 181.117 908.883 182.25C909.111 183.384 909.104 184.551 908.864 185.682C908.624 186.813 908.156 187.882 907.487 188.825C906.819 189.769 905.965 190.565 904.978 191.167C910.351 199.189 914.322 208.066 916.72 217.419C918.107 221.245 918.107 225.437 916.72 229.263C914.925 232.878 909.721 234.955 906.696 232.263C907.622 233.924 908.054 235.816 907.94 237.714C907.827 239.613 907.173 241.44 906.055 242.979C909.798 243.44 910.311 249.388 907.465 251.849C904.619 254.31 900.364 254.157 896.595 253.695C892.826 253.234 888.776 252.593 885.468 254.413C885.448 254.884 885.523 255.355 885.691 255.795C885.858 256.236 886.114 256.638 886.443 256.977C889.37 259.701 891.134 263.449 891.368 267.441C891.602 271.433 890.288 275.362 887.699 278.409L886.289 280.024C883.725 282.896 878.111 285.152 874.573 286.562C865.6 290.1 860.601 288.741 850.961 289.125C852.909 295.509 836.092 307.482 819.812 292.304C787.292 298.085 754.106 299.121 721.289 295.381C716.162 294.868 709.906 293.509 708.086 288.587C705.893 288.792 703.683 288.427 701.671 287.529C699.66 286.631 697.913 285.229 696.601 283.46C694.005 279.912 692.028 275.951 690.756 271.744C686.394 269.969 682.689 266.886 680.15 262.92C677.611 258.953 676.363 254.298 676.578 249.593C673.786 246.867 671.591 243.591 670.13 239.972C668.669 236.354 667.976 232.471 668.093 228.571C666.056 227.581 664.245 226.183 662.772 224.465C661.298 222.746 660.192 220.743 659.524 218.58C658.856 216.417 658.639 214.14 658.887 211.889C659.135 209.639 659.842 207.463 660.965 205.498C663.983 194.932 668.721 184.937 674.989 175.913C669.169 173.99 667.759 165.658 670.784 160.377C673.81 155.095 679.629 152.019 685.116 149.276C680.526 149.994 677.219 143.995 678.758 139.611C680.296 135.227 684.654 132.56 688.858 130.586C695.033 127.713 701.532 125.595 708.214 124.28C711.163 116.589 722.11 108.744 729.826 106.026C760.95 95.0792 782.126 93.6948 816.992 125.331" fill="#263238"/>
<path d="M816.454 310.532L840.065 175.143C840.599 172.164 839.993 169.093 838.37 166.538C836.746 163.984 834.222 162.132 831.298 161.351L770.41 135.329C750.439 129.997 733.005 152.865 728.519 173.041C723.52 195.448 718.264 223.033 718.264 240.338C717.92 249.847 720.639 259.215 726.021 267.061C731.402 274.908 739.162 280.818 748.157 283.921C748.157 283.921 744.773 306.584 744.773 306.584C744.773 306.584 739.004 323.992 746.414 323.915C756.309 323.787 816.377 310.584 816.377 310.584" fill="#A86E67"/>
<path d="M727.263 199.088C727.519 199.857 731.595 199.088 735.902 201.037C740.209 202.985 742.337 206.651 743.055 206.344C743.388 206.344 743.337 205.036 742.414 203.395C741.15 201.243 739.252 199.533 736.979 198.499C734.749 197.454 732.243 197.148 729.826 197.627C728.032 197.96 727.134 198.755 727.263 199.088Z" fill="#263238"/>
<path d="M774.665 207.113C775.178 207.702 778.614 205.344 783.356 205.523C788.099 205.703 791.483 208.087 792.022 207.651C792.56 207.215 791.765 206.344 790.278 205.087C788.289 203.581 785.877 202.738 783.382 202.678C780.913 202.564 778.475 203.257 776.434 204.652C774.922 205.805 774.409 206.831 774.665 207.113Z" fill="#263238"/>
<path d="M755.72 228.725C753.369 227.558 750.88 226.696 748.311 226.161C747.131 225.853 746.029 225.443 745.978 224.597C746.056 223.337 746.532 222.135 747.336 221.162C748.9 218.444 750.567 215.599 752.31 212.625C759.258 200.422 764.488 190.295 764 190.013C763.513 189.731 757.463 199.422 750.515 211.625C748.823 214.624 747.208 217.496 745.67 220.265C744.686 221.584 744.204 223.211 744.311 224.854C744.413 225.304 744.619 225.724 744.913 226.081C745.207 226.437 745.58 226.719 746.003 226.905C746.641 227.193 747.313 227.4 748.003 227.52C750.515 228.24 753.107 228.645 755.72 228.725V228.725Z" fill="#263238"/>
<path d="M748.234 283.87C748.234 283.87 766.359 288.638 791.15 278.589C791.15 278.589 781.69 303.046 746.49 295.612L748.234 283.87Z" fill="#7B4B45"/>
<path d="M779.152 176.912C779.434 178.246 784.279 178.374 789.586 179.912C794.893 181.45 799.2 183.629 800.123 182.604C800.533 182.117 799.944 180.809 798.328 179.271C796.172 177.388 793.617 176.02 790.854 175.269C788.092 174.518 785.195 174.405 782.382 174.938C780.254 175.425 779.05 176.271 779.152 176.912Z" fill="#263238"/>
<path d="M736.441 172.528C737.107 173.733 740.517 173.118 744.388 173.682C748.259 174.246 751.464 175.528 752.387 174.528C752.797 174.041 752.387 172.887 751.182 171.657C749.439 170.161 747.295 169.21 745.016 168.923C742.736 168.636 740.423 169.025 738.363 170.042C736.8 170.913 736.159 171.939 736.441 172.528Z" fill="#263238"/>
<path d="M711.342 187.706C712.086 182.313 714.667 177.342 718.649 173.631C721.073 171.958 723.409 170.161 725.648 168.247C730.057 163.607 730.314 156.557 732.621 150.609C734.159 146.775 736.589 143.363 739.71 140.656C742.832 137.95 746.553 136.027 750.567 135.047C757.232 133.458 764.462 134.586 770.82 132.073C775.537 130.202 779.357 126.51 784.177 124.921C793.534 121.844 803.353 127.484 811.224 133.535C812.147 140.405 807.25 145.712 802.559 150.814C800.193 153.367 797.301 155.377 794.084 156.705C790.866 158.033 787.398 158.647 783.92 158.505C778.562 158.249 772.461 156.326 768.282 159.71C764.103 163.094 764.641 170.503 760.873 174.733C755.515 180.784 745.234 177.092 737.8 180.373C732.108 182.937 729.134 189.064 725.801 194.346C722.469 199.627 717.187 204.934 711.009 203.959C710.496 198.547 710.608 193.093 711.342 187.706V187.706Z" fill="#263238"/>
<path d="M796.508 144.123C812.17 145.646 827.389 150.191 841.322 157.505C845.656 159.34 849.3 162.498 851.73 166.529C853.221 170.391 853.586 174.596 852.781 178.656C851.192 191.474 844.295 206.497 838.091 217.778L821.043 225.469C809.07 221.187 817.095 200.575 818.889 190.013C814.834 187.572 811.543 184.046 809.387 179.832C807.23 175.619 806.295 170.887 806.686 166.17C803.454 163.486 800.863 160.113 799.102 156.298C797.341 152.484 796.455 148.324 796.508 144.123V144.123Z" fill="#263238"/>
<path d="M821.786 221.034C823.094 213.778 832.22 213.343 838.091 217.829C841.296 220.393 843.449 224.674 842.142 232.391C838.63 252.9 818.684 245.209 818.761 244.594C818.838 243.979 820.248 229.571 821.786 221.034Z" fill="#A86E67"/>
<path d="M826.401 237.928C826.401 237.928 826.709 238.236 827.273 238.621C828.039 239.092 828.948 239.274 829.836 239.133C832.144 238.698 834.553 235.57 835.297 231.878C835.656 230.122 835.612 228.308 835.169 226.571C835.09 225.895 834.846 225.248 834.456 224.689C834.067 224.129 833.546 223.675 832.938 223.367C832.546 223.186 832.103 223.149 831.686 223.261C831.269 223.374 830.905 223.629 830.657 223.982C830.298 224.52 830.349 224.93 830.221 224.956C830.093 224.982 829.836 224.546 830.221 223.726C830.41 223.229 830.775 222.818 831.246 222.572C831.562 222.403 831.908 222.297 832.264 222.262C832.62 222.227 832.98 222.262 833.323 222.367C834.159 222.658 834.905 223.16 835.489 223.825C836.073 224.49 836.475 225.295 836.656 226.161C837.23 228.092 837.327 230.133 836.938 232.109C836.092 236.236 833.297 239.8 830.195 240.108C829.613 240.173 829.023 240.108 828.469 239.918C827.914 239.727 827.409 239.415 826.991 239.005C826.401 238.416 826.401 237.954 826.401 237.928Z" fill="#7B4B45"/>
<path d="M827.683 246.876C827.683 246.876 827.683 246.876 827.683 247.158C827.697 247.439 827.758 247.716 827.862 247.978C828.253 249.061 829.016 249.97 830.016 250.542C831.551 251.429 833.253 251.987 835.015 252.183C836.127 252.34 837.252 252.391 838.373 252.336C839.65 252.309 840.914 252.075 842.116 251.644L841.886 251.49C841.943 253.29 842.473 255.044 843.423 256.574C844.373 258.104 845.709 259.356 847.296 260.206C848.884 261.056 850.668 261.473 852.468 261.414C854.268 261.356 856.02 260.825 857.55 259.874H857.216C857.481 260.381 857.844 260.83 858.284 261.196C858.724 261.561 859.233 261.835 859.78 262.002C860.885 262.322 862.059 262.322 863.164 262.002C864.326 261.719 865.362 261.061 866.112 260.13C866.846 259.157 867.338 258.023 867.548 256.823C867.901 254.338 867.375 251.808 866.061 249.67C864.685 247.505 863.049 245.517 861.19 243.748V244.209C862.11 243.764 862.925 243.129 863.583 242.347C864.241 241.565 864.728 240.654 865.01 239.672C865.626 237.658 865.626 235.507 865.01 233.493C864.364 231.458 863.328 229.569 861.959 227.93C860.582 226.274 859.1 224.707 857.524 223.238V223.597C858.363 222.886 859.04 222.003 859.509 221.008C859.978 220.013 860.228 218.929 860.242 217.829C860.357 215.576 859.785 213.34 858.601 211.42C856.146 208.028 852.967 205.226 849.295 203.216L849.423 203.601C850.196 201.501 850.45 199.246 850.163 197.027C849.876 194.809 849.057 192.692 847.775 190.859C846.493 189.025 844.787 187.529 842.801 186.498C840.816 185.467 838.611 184.931 836.374 184.937L836.656 185.347C837.191 183.6 837.318 181.754 837.03 179.949C836.741 178.145 836.043 176.431 834.989 174.938C834.072 173.518 832.861 172.311 831.436 171.4C830.012 170.488 828.408 169.894 826.734 169.657L826.965 169.965C827.113 168.195 826.857 166.416 826.218 164.759C825.578 163.103 824.571 161.613 823.273 160.402C822.184 159.286 820.879 158.404 819.438 157.809C817.996 157.214 816.449 156.919 814.89 156.941L815.095 157.172C815.188 155.274 814.819 153.383 814.018 151.66C813.357 150.13 812.437 148.725 811.301 147.507C809.541 145.513 807.17 144.161 804.558 143.661H803.789H803.046C802.602 143.623 802.156 143.623 801.712 143.661C801.029 143.712 800.351 143.823 799.687 143.995L798.482 144.353C798.2 144.353 798.072 144.353 798.072 144.507H798.482L799.713 144.2C800.225 144.046 800.943 144.046 801.738 143.918C802.174 143.893 802.61 143.893 803.046 143.918H803.763L804.507 144.071C807.061 144.59 809.37 145.942 811.07 147.917C812.112 149.072 812.96 150.388 813.582 151.814C814.349 153.473 814.693 155.296 814.582 157.121V157.351H814.839C816.328 157.329 817.807 157.608 819.186 158.172C820.565 158.736 821.816 159.573 822.863 160.633C824.105 161.787 825.069 163.209 825.681 164.789C826.294 166.37 826.54 168.07 826.401 169.76V170.016H826.683C828.284 170.25 829.815 170.83 831.17 171.716C832.525 172.601 833.671 173.771 834.528 175.143C835.528 176.558 836.192 178.183 836.467 179.894C836.743 181.605 836.623 183.356 836.117 185.014L835.963 185.424H836.399C838.547 185.418 840.665 185.934 842.57 186.928C844.474 187.922 846.108 189.364 847.332 191.13C848.555 192.895 849.331 194.932 849.593 197.064C849.854 199.197 849.594 201.361 848.833 203.37V203.626H849.064C852.647 205.582 855.755 208.304 858.165 211.599C859.282 213.413 859.827 215.522 859.729 217.65C859.7 218.669 859.457 219.67 859.015 220.589C858.574 221.508 857.943 222.323 857.165 222.982L856.883 223.213L857.14 223.469C860.408 226.101 862.935 229.538 864.472 233.442C865.034 235.341 865.034 237.362 864.472 239.262C864.213 240.166 863.766 241.005 863.161 241.725C862.556 242.445 861.806 243.03 860.96 243.44L860.575 243.62L860.883 243.927C862.705 245.661 864.315 247.606 865.677 249.721C866.921 251.754 867.428 254.153 867.112 256.515C866.989 257.612 866.547 258.648 865.84 259.495C865.134 260.343 864.195 260.965 863.139 261.284C862.163 261.611 861.106 261.6 860.138 261.251C859.17 260.902 858.348 260.236 857.806 259.361V259.13L857.575 259.258C855.974 260.204 854.141 260.688 852.282 260.656C850.422 260.624 848.607 260.079 847.039 259.079C845.735 258.209 844.648 257.052 843.862 255.696C843.075 254.341 842.609 252.823 842.501 251.26V251.029H842.27C841.098 251.442 839.871 251.675 838.63 251.721C837.538 251.826 836.439 251.826 835.348 251.721C833.611 251.551 831.928 251.027 830.4 250.183C829.441 249.672 828.676 248.862 828.221 247.876C827.734 247.286 827.734 246.876 827.683 246.876Z" fill="#455A64"/>
<path d="M909.08 233.544C909.419 233.177 909.728 232.783 910.003 232.365C910.768 231.153 911.291 229.803 911.541 228.391C911.963 226.117 911.63 223.768 910.593 221.7C909.881 220.333 908.894 219.129 907.694 218.163C906.494 217.196 905.107 216.489 903.619 216.086L903.748 216.368C904.834 212.924 904.578 209.196 903.03 205.933C902.195 204.108 900.98 202.483 899.466 201.165C897.779 199.896 895.977 198.789 894.083 197.858C893.137 197.358 892.273 196.719 891.519 195.961C890.774 195.175 890.221 194.227 889.904 193.192C889.212 191.115 889.16 188.731 888.237 186.449C887.249 184.126 885.588 182.152 883.468 180.781C881.348 179.41 878.866 178.706 876.342 178.758L876.649 179.168C877.285 176.692 877.343 174.104 876.821 171.601C876.299 169.099 875.21 166.749 873.638 164.734C872.065 162.718 870.052 161.09 867.752 159.975C865.452 158.859 862.926 158.286 860.37 158.3L860.678 158.685C861.284 155.953 861.096 153.106 860.136 150.477C859.176 147.849 857.485 145.551 855.261 143.853C853.038 142.155 850.375 141.128 847.587 140.895C844.799 140.661 842.002 141.229 839.527 142.533H839.86C838.011 140.355 835.711 138.606 833.118 137.406C830.832 136.235 828.401 135.373 825.888 134.842C821.828 133.913 817.634 133.722 813.506 134.278C810.836 134.591 808.237 135.345 805.814 136.509C805.18 136.798 804.571 137.141 803.994 137.534L803.379 137.944C803.379 137.944 804.225 137.431 805.943 136.637C808.387 135.566 810.981 134.875 813.634 134.586C817.718 134.095 821.856 134.32 825.863 135.252C828.337 135.804 830.731 136.665 832.99 137.816C835.508 139.041 837.737 140.789 839.527 142.943L839.681 143.123H839.86C842.134 141.988 844.666 141.468 847.203 141.617C849.74 141.765 852.194 142.576 854.32 143.969C856.62 145.58 858.398 147.83 859.432 150.441C860.467 153.052 860.712 155.909 860.139 158.659V159.043H860.524C862.985 159.024 865.418 159.57 867.634 160.641C869.85 161.712 871.79 163.278 873.305 165.219C874.819 167.159 875.866 169.422 876.366 171.832C876.866 174.242 876.805 176.735 876.188 179.117V179.527H876.624C879.02 179.473 881.378 180.134 883.397 181.426C885.415 182.718 887.002 184.583 887.955 186.783C888.827 188.911 888.878 191.269 889.622 193.474C889.952 194.592 890.55 195.613 891.365 196.448C892.126 197.226 892.988 197.899 893.929 198.447C895.8 199.346 897.578 200.428 899.236 201.678C900.71 202.933 901.899 204.489 902.722 206.241C904.231 209.394 904.505 212.997 903.491 216.342V216.547H903.722C905.159 216.925 906.502 217.596 907.667 218.518C908.831 219.44 909.793 220.594 910.49 221.905C911.532 223.906 911.901 226.19 911.541 228.417C911.313 229.811 910.826 231.15 910.106 232.365C909.388 233.134 909.055 233.519 909.08 233.544Z" fill="#455A64"/>
<path d="M710.368 217.06C710.525 216.811 710.63 216.532 710.674 216.241C710.718 215.95 710.701 215.652 710.624 215.368C710.455 214.671 710.101 214.034 709.599 213.522C708.912 212.84 708.092 212.307 707.189 211.958C706.084 211.541 705.047 210.962 704.112 210.24C703.08 209.292 702.386 208.031 702.138 206.651C701.844 205.067 701.844 203.442 702.138 201.857C702.395 200.165 702.856 198.371 703.087 196.448C703.129 192.234 702.699 188.029 701.805 183.911C701.508 181.62 701.673 179.292 702.292 177.066C702.592 175.899 703.142 174.811 703.903 173.878C704.665 172.944 705.619 172.186 706.702 171.657C709.137 170.802 711.669 170.251 714.239 170.016C715.604 169.793 716.921 169.343 718.136 168.683C719.372 167.972 720.399 166.946 721.11 165.709C722.414 163.182 723.453 160.528 724.212 157.787C724.637 156.442 725.268 155.17 726.083 154.019C726.917 152.894 728.097 152.074 729.442 151.686C731.374 151.44 733.329 151.44 735.261 151.686C736.269 151.713 737.273 151.575 738.235 151.275C739.225 150.95 740.111 150.366 740.799 149.583C741.957 148.016 742.881 146.289 743.542 144.456C744.596 142.025 746.377 139.98 748.64 138.603C750.903 137.226 753.538 136.583 756.181 136.765C759.416 137.055 762.425 138.546 764.616 140.944L764.846 141.226L765.052 140.892C766.51 138.481 768.468 136.409 770.794 134.817C773.12 133.225 775.76 132.15 778.537 131.663C780.849 131.258 783.218 131.31 785.51 131.817C787.465 132.227 789.332 132.982 791.022 134.047C793.399 135.553 795.288 137.717 796.457 140.277C796.787 140.945 797.062 141.64 797.277 142.354L797.457 142.892V143.072C797.457 143.072 797.457 143.072 797.457 142.866L797.303 142.328C797.123 141.597 796.874 140.884 796.559 140.2C795.423 137.573 793.542 135.336 791.15 133.765C789.437 132.674 787.545 131.893 785.561 131.458C783.217 130.905 780.786 130.818 778.408 131.202C775.561 131.694 772.851 132.788 770.459 134.41C768.067 136.033 766.049 138.146 764.539 140.61H764.975C762.701 138.093 759.56 136.527 756.181 136.227C754.372 136.083 752.553 136.314 750.837 136.905C749.121 137.496 747.545 138.435 746.208 139.662C744.829 140.91 743.721 142.429 742.953 144.123C742.333 145.867 741.47 147.516 740.389 149.019C739.739 149.71 738.937 150.238 738.047 150.563C737.157 150.888 736.203 151 735.261 150.891C733.263 150.687 731.247 150.739 729.262 151.045C727.787 151.479 726.492 152.378 725.571 153.608C724.72 154.806 724.062 156.129 723.622 157.531C722.88 160.191 721.866 162.769 720.597 165.222C719.92 166.369 718.969 167.329 717.828 168.016C716.667 168.631 715.41 169.047 714.111 169.247C711.487 169.506 708.905 170.083 706.42 170.965C705.213 171.553 704.173 172.434 703.395 173.528C702.643 174.539 702.079 175.677 701.728 176.887C701.094 179.181 700.937 181.58 701.267 183.937C702.168 188.02 702.615 192.19 702.6 196.371C702.42 198.268 701.959 200.037 701.703 201.78C701.381 203.405 701.381 205.078 701.703 206.703C701.979 208.145 702.716 209.459 703.805 210.446C704.776 211.168 705.847 211.747 706.984 212.163C707.87 212.482 708.682 212.979 709.368 213.625C709.857 214.115 710.211 214.725 710.394 215.394C710.571 215.936 710.562 216.523 710.368 217.06Z" fill="#455A64"/>
<path d="M673.733 180.502C673.831 180.392 673.917 180.271 673.989 180.143L674.681 179.04L677.245 174.785C678.399 172.939 679.809 170.631 681.526 168.145C683.421 165.251 686.084 162.943 689.217 161.479C690.986 160.761 692.986 160.377 695.037 159.736C696.085 159.409 697.092 158.962 698.037 158.403C699.039 157.759 699.867 156.879 700.446 155.839C701.677 153.814 701.985 151.378 703.01 149.25C703.497 148.178 704.303 147.283 705.317 146.686C706.414 146.1 707.601 145.701 708.83 145.507C710.133 145.3 711.412 144.965 712.65 144.507C713.947 144.011 715.052 143.113 715.803 141.944C716.991 139.503 717.853 136.917 718.367 134.252C718.723 132.926 719.332 131.681 720.161 130.586C720.625 130.051 721.19 129.612 721.823 129.296C722.457 128.979 723.146 128.79 723.853 128.741C726.622 128.484 729.442 129.766 732.544 129.612C734.088 129.524 735.563 128.94 736.748 127.946C737.866 126.975 738.872 125.883 739.748 124.69C740.54 123.532 741.396 122.42 742.312 121.357C743.216 120.338 744.362 119.562 745.644 119.101C748.281 118.534 751.031 118.859 753.464 120.024C755.881 121.106 758.507 121.64 761.155 121.588C763.672 121.247 766.105 120.448 768.333 119.229C770.411 118.175 772.582 117.316 774.819 116.666C778.936 115.765 783.227 116.104 787.151 117.64C790.403 118.868 793.332 120.824 795.713 123.357C797.498 125.282 798.977 127.469 800.097 129.843C800.781 131.355 801.33 132.925 801.738 134.535C801.892 135.073 801.994 135.483 802.097 135.791L802.225 136.227V135.791C802.225 135.457 802.071 135.047 801.943 134.509C801.572 132.874 801.048 131.278 800.379 129.74C799.304 127.313 797.85 125.072 796.072 123.1C793.657 120.511 790.686 118.503 787.381 117.23C783.508 115.622 779.252 115.168 775.127 115.922C772.845 116.604 770.637 117.514 768.538 118.64C766.356 119.802 763.988 120.575 761.539 120.921C758.944 120.947 756.373 120.414 754.002 119.357C752.707 118.877 751.379 118.491 750.028 118.204C748.615 117.914 747.151 117.984 745.773 118.409C744.393 118.898 743.158 119.727 742.183 120.819C741.135 121.888 740.151 123.018 739.235 124.203C738.402 125.36 737.438 126.418 736.364 127.356C735.264 128.257 733.911 128.795 732.493 128.894C729.621 129.048 726.801 127.766 723.776 128.023C722.259 128.158 720.854 128.874 719.854 130.022C718.942 131.169 718.286 132.498 717.931 133.919C717.419 136.585 716.557 139.171 715.367 141.61C714.687 142.695 713.682 143.538 712.496 144.02C711.287 144.45 710.043 144.776 708.778 144.994C707.492 145.195 706.252 145.621 705.112 146.251C703.982 146.909 703.086 147.904 702.549 149.096C701.472 151.352 701.19 153.762 699.985 155.685C698.789 157.49 696.959 158.78 694.858 159.3C692.858 159.941 690.833 160.351 689.012 161.094C685.789 162.59 683.059 164.973 681.142 167.965C679.347 170.529 678.065 172.836 676.937 174.682C675.809 176.528 674.989 177.989 674.374 179.015C674.092 179.476 673.887 179.861 673.733 180.143C673.579 180.425 673.707 180.502 673.733 180.502Z" fill="#455A64"/>
<path d="M698.216 161.299C698.216 161.299 698.088 161.299 697.857 161.299C697.476 161.222 697.084 161.222 696.703 161.299C696.021 161.609 695.427 162.086 694.979 162.687C694.531 163.288 694.242 163.992 694.14 164.735C693.988 165.78 693.988 166.843 694.14 167.888C694.309 169.096 694.309 170.321 694.14 171.529C693.838 172.89 693.193 174.152 692.268 175.195C691.32 176.348 690.166 177.476 689.166 178.861C688.604 179.575 688.213 180.409 688.022 181.297C687.831 182.186 687.845 183.106 688.064 183.988C688.525 185.834 689.653 187.449 690.063 189.321C690.409 191.286 689.977 193.308 688.859 194.961C687.859 196.755 686.5 198.447 685.474 200.473C684.927 201.493 684.57 202.605 684.423 203.754C684.316 204.941 684.455 206.137 684.833 207.267C685.726 209.484 686.825 211.612 688.115 213.625C689.434 215.627 689.956 218.051 689.576 220.418C688.75 222.778 687.649 225.033 686.295 227.135C685.665 228.289 685.257 229.549 685.09 230.853C684.978 232.161 685.171 233.477 685.654 234.698C686.663 236.96 687.937 239.094 689.448 241.056C690.86 242.914 691.873 245.044 692.422 247.312C692.757 249.57 693.237 251.805 693.858 254.003C694.222 255.08 694.837 256.055 695.652 256.848C696.474 257.589 697.42 258.179 698.447 258.592C699.391 258.983 700.307 259.437 701.19 259.951C702.02 260.463 702.764 261.103 703.395 261.848C704.575 263.306 705.55 264.919 706.292 266.642C707.086 268.308 707.804 269.923 708.625 271.385C710.116 274.086 712.447 276.228 715.265 277.486C717.358 278.462 719.647 278.944 721.956 278.896C723.405 278.875 724.841 278.624 726.212 278.153C726.687 277.99 727.149 277.793 727.596 277.563C725.794 278.254 723.886 278.627 721.956 278.666C719.695 278.645 717.465 278.138 715.418 277.179C712.696 275.911 710.457 273.798 709.035 271.154C708.214 269.718 707.522 268.103 706.753 266.437C705.996 264.663 705.004 262.999 703.805 261.489C703.132 260.709 702.346 260.035 701.472 259.489C700.575 258.925 699.6 258.541 698.677 258.079C697.733 257.688 696.865 257.132 696.114 256.438C695.382 255.712 694.814 254.838 694.447 253.875C693.85 251.7 693.388 249.491 693.063 247.26C692.504 244.911 691.465 242.703 690.012 240.774C688.536 238.849 687.288 236.758 686.295 234.544C685.848 233.422 685.673 232.21 685.782 231.006C685.935 229.775 686.317 228.584 686.91 227.494C688.285 225.351 689.403 223.053 690.243 220.649C690.55 219.394 690.55 218.084 690.243 216.829C689.914 215.627 689.431 214.473 688.807 213.394C687.547 211.413 686.458 209.329 685.551 207.164C685.209 206.115 685.079 205.008 685.167 203.908C685.311 202.826 685.641 201.777 686.141 200.806C687.115 198.858 688.474 197.166 689.499 195.294C690.678 193.522 691.119 191.361 690.73 189.269C690.268 187.27 689.141 185.68 688.705 183.937C688.491 183.121 688.468 182.266 688.637 181.439C688.806 180.613 689.162 179.836 689.679 179.168C690.627 177.81 691.781 176.605 692.73 175.502C693.699 174.403 694.362 173.068 694.652 171.631C694.776 170.381 694.716 169.12 694.473 167.888C694.26 166.886 694.208 165.856 694.319 164.837C694.398 164.138 694.644 163.467 695.037 162.882C695.429 162.298 695.957 161.816 696.575 161.479C697.087 161.24 697.664 161.177 698.216 161.299V161.299Z" fill="#455A64"/>
<path d="M908.619 232.801C909.172 232.861 909.731 232.861 910.285 232.801C911.892 232.654 913.453 232.183 914.874 231.417C917.191 230.207 919.007 228.219 920.001 225.802C920.641 224.198 920.919 222.474 920.817 220.75C920.716 219.027 920.236 217.347 919.412 215.829C918.352 214.137 917.124 212.557 915.746 211.112C914.24 209.604 913.1 207.771 912.413 205.754C911.958 203.517 912.341 201.19 913.49 199.217C914.541 197.089 916.053 195.038 917.028 192.679C918.153 190.068 918.723 187.251 918.702 184.408C918.68 181.565 918.068 178.757 916.904 176.163C915.739 173.569 914.048 171.245 911.938 169.34C909.827 167.434 907.344 165.988 904.645 165.094L904.773 165.581C905.878 164.352 906.67 162.874 907.08 161.274C907.486 159.648 907.573 157.959 907.337 156.3C907.093 154.625 906.564 153.003 905.773 151.506C904.948 150.016 903.902 148.659 902.671 147.481C898.932 144.157 894.474 141.744 889.647 140.431C885.162 139.041 880.499 138.307 875.803 138.252L876.111 138.585C876.264 136.614 876.02 134.633 875.393 132.758C874.766 130.883 873.77 129.153 872.462 127.671C871.154 126.189 869.562 124.984 867.78 124.128C865.998 123.273 864.062 122.784 862.088 122.69C859.725 122.683 857.375 123.029 855.114 123.716C854.039 123.968 852.938 124.097 851.833 124.1C850.772 124.069 849.728 123.834 848.756 123.408C846.926 122.516 845.205 121.415 843.629 120.126C842.112 118.923 840.45 117.915 838.681 117.127C837.042 116.457 835.315 116.025 833.554 115.845C830.922 115.571 828.262 115.889 825.769 116.777C823.276 117.664 821.013 119.097 819.146 120.972C818.167 121.973 817.306 123.082 816.582 124.28C816.311 124.693 816.08 125.131 815.89 125.587C815.89 125.587 816.146 125.151 816.659 124.357C817.384 123.183 818.244 122.099 819.223 121.126C820.812 119.561 822.682 118.308 824.734 117.435C826.906 116.521 829.237 116.051 831.592 116.051C833.948 116.051 836.279 116.521 838.45 117.435C840.195 118.203 841.832 119.194 843.321 120.383C844.933 121.715 846.697 122.851 848.577 123.767C849.606 124.213 850.711 124.457 851.833 124.485C852.98 124.506 854.125 124.386 855.242 124.126C857.463 123.459 859.769 123.122 862.088 123.126C864.516 123.265 866.871 124.015 868.933 125.305C871.123 126.685 872.894 128.637 874.055 130.95C875.216 133.264 875.723 135.851 875.521 138.431V138.995H875.855C880.489 139.054 885.091 139.779 889.519 141.149C894.272 142.428 898.661 144.798 902.338 148.071C903.452 149.171 904.394 150.433 905.132 151.814C905.89 153.246 906.393 154.798 906.619 156.403C906.851 157.975 906.772 159.578 906.388 161.12C906.011 162.625 905.271 164.016 904.235 165.171L903.927 165.53L904.363 165.683C906.992 166.538 909.414 167.932 911.473 169.776C913.532 171.621 915.183 173.876 916.32 176.395C917.457 178.915 918.054 181.645 918.075 184.409C918.095 187.174 917.537 189.912 916.438 192.448C915.464 194.756 914.002 196.807 912.951 198.986C911.741 201.069 911.357 203.53 911.874 205.882C912.584 207.963 913.769 209.851 915.335 211.394C916.694 212.822 917.913 214.375 918.976 216.034C919.788 217.494 920.267 219.116 920.378 220.782C920.489 222.449 920.229 224.12 919.617 225.674C918.688 228.031 916.965 229.99 914.746 231.211C913.378 232.007 911.858 232.505 910.285 232.673C909.208 232.827 908.619 232.775 908.619 232.801Z" fill="#263238"/>
<path d="M692.499 146.225C692.509 146.097 692.509 145.968 692.499 145.84L692.73 144.687C692.96 143.636 693.268 142.123 693.653 140.277C694.037 138.431 694.627 136.021 695.447 133.355C696.34 130.342 697.597 127.45 699.19 124.741C701.114 121.435 703.739 118.591 706.881 116.409C708.63 115.258 710.551 114.392 712.573 113.845C714.759 113.326 716.977 112.949 719.213 112.717C721.62 112.449 723.953 111.717 726.083 110.564C728.251 109.191 730.233 107.546 731.98 105.667C733.8 103.898 735.543 102.027 737.543 100.386C739.563 98.7122 741.875 97.4258 744.363 96.5918C749.332 95.0381 754.57 94.5318 759.745 95.1048C764.578 95.4871 769.376 96.224 774.101 97.3096C782.109 99.0893 789.767 102.182 796.765 106.462C801.465 109.396 805.677 113.046 809.25 117.281C809.865 118.024 810.429 118.691 810.891 119.306C811.352 119.921 811.685 120.434 811.967 120.87L812.66 121.819C812.813 122.024 812.89 122.152 812.916 122.126L812.711 121.793L812.095 120.793C811.788 120.357 811.455 119.819 811.044 119.178C810.634 118.537 810.045 117.896 809.455 117.127C805.937 112.801 801.737 109.077 797.021 106.103C790.003 101.726 782.298 98.563 774.23 96.7456C769.482 95.63 764.657 94.8758 759.796 94.4895C754.552 93.902 749.242 94.4173 744.209 96.0021C741.676 96.8997 739.329 98.2553 737.287 100.001C735.261 101.694 733.492 103.565 731.698 105.334C729.983 107.091 728.054 108.624 725.955 109.897C723.902 111.029 721.645 111.743 719.315 112C717.056 112.27 714.814 112.663 712.598 113.179C710.466 113.747 708.446 114.675 706.625 115.922C703.473 118.177 700.849 121.09 698.934 124.459C697.351 127.212 696.111 130.148 695.242 133.201C694.557 135.495 693.992 137.822 693.55 140.175C693.166 142.097 692.909 143.61 692.73 144.61L692.55 145.789C692.499 146.097 692.473 146.225 692.499 146.225Z" fill="#263238"/>
<path d="M768.743 237.39L752.9 241.287L751.387 241.646C751.734 244.359 752.415 247.02 753.412 249.568C753.884 250.658 754.586 251.633 755.472 252.426C756.357 253.218 757.404 253.809 758.54 254.157C760.443 254.503 762.407 254.243 764.154 253.413C765.511 252.708 766.706 251.729 767.664 250.537C768.621 249.345 769.321 247.968 769.718 246.491C770.179 244.987 770.33 243.405 770.163 241.841C769.995 240.277 769.512 238.762 768.743 237.39V237.39Z" fill="#7B4B45"/>
<path d="M757.694 254.105C759.729 254.364 761.796 254.09 763.693 253.311C765.655 252.361 767.244 250.781 768.205 248.824C769.36 246.436 769.711 243.737 769.205 241.133C769.068 240.447 768.888 239.771 768.666 239.108C768.587 238.826 768.466 238.559 768.307 238.313C768.307 238.185 768.307 238.185 768 238.313L764.129 239.313L757.489 240.954C755.463 241.583 753.373 241.987 751.259 242.158C753.167 241.241 755.17 240.536 757.232 240.056L763.821 238.108C765.103 237.749 766.385 237.39 767.795 237.005C768.084 236.955 768.382 236.982 768.657 237.086C768.932 237.19 769.175 237.366 769.359 237.595C769.599 237.961 769.789 238.358 769.923 238.774C770.161 239.506 770.358 240.251 770.512 241.005C771.1 243.913 770.674 246.934 769.307 249.568C768.195 251.703 766.386 253.395 764.18 254.362C762.674 254.956 761.038 255.142 759.437 254.9C758.207 254.516 757.668 254.182 757.694 254.105Z" fill="#263238"/>
<path d="M840.604 237.39C840.474 235.007 839.443 232.762 837.72 231.11C835.997 229.458 833.71 228.523 831.323 228.494C830.412 228.45 829.508 228.668 828.717 229.123C827.927 229.577 827.283 230.249 826.862 231.058C826.412 231.923 826.243 232.908 826.381 233.873C826.519 234.839 826.957 235.737 827.631 236.441C828.888 237.518 830.708 237.416 831.887 238.595C832.421 239.279 832.793 240.075 832.975 240.923C833.157 241.771 833.144 242.649 832.938 243.492C832.656 245.235 832.041 246.876 831.913 248.619C831.783 249.464 831.894 250.329 832.234 251.114C832.575 251.899 833.13 252.571 833.836 253.054C834.511 253.277 835.242 253.267 835.912 253.025C836.581 252.784 837.15 252.324 837.527 251.721C838.364 250.409 838.962 248.96 839.296 247.44C840.417 244.215 840.862 240.794 840.604 237.39Z" fill="#455A64"/>
<path d="M742.722 280.614C742.844 281.326 742.913 282.046 742.927 282.767C742.927 284.28 743.081 286.357 743.209 288.946C743.388 294.432 743.67 302.175 744.004 311.686C744.157 316.48 744.311 321.736 744.491 327.376C744.495 330.255 744.804 333.125 745.414 335.939C746.082 338.84 747.537 341.501 749.618 343.63C751.97 345.86 754.79 347.537 757.873 348.539C760.955 349.542 764.222 349.844 767.436 349.424C774.426 348.44 781.109 345.908 786.997 342.015C798.477 334.481 807.911 324.22 814.454 312.147C819.852 302.307 824.061 291.859 826.991 281.024C829.554 271.82 831.144 264.206 832.297 258.951C832.836 256.387 833.246 254.387 833.579 252.9C833.698 252.185 833.878 251.482 834.118 250.798C834.072 251.521 833.978 252.241 833.836 252.952C833.579 254.464 833.246 256.49 832.81 259.053C831.81 264.334 830.375 271.872 827.888 281.281C825.09 292.238 820.939 302.805 815.531 312.737C808.948 325.048 799.374 335.504 787.689 343.143C781.645 347.188 774.766 349.817 767.564 350.834C764.162 351.259 760.707 350.92 757.452 349.842C754.197 348.765 751.223 346.975 748.746 344.604C746.509 342.285 744.957 339.392 744.26 336.246C743.66 333.345 743.368 330.389 743.388 327.427C743.26 321.813 743.158 316.531 743.055 311.737C742.901 302.226 742.773 294.484 742.671 288.972C742.671 286.408 742.671 284.331 742.671 282.793C742.619 282.067 742.636 281.337 742.722 280.614V280.614Z" fill="#455A64"/>
<path d="M717.546 420.771C717.914 419.755 718.378 418.777 718.931 417.849L723.084 410.158C726.724 403.389 731.518 394.545 736.8 384.726C742.081 374.907 746.696 365.96 750.259 359.089L754.361 351.398C754.826 350.423 755.384 349.496 756.027 348.629C755.728 349.667 755.324 350.672 754.822 351.628C754.002 353.526 752.72 356.243 751.105 359.576C747.901 366.241 743.286 375.368 737.979 385.341C732.672 395.314 727.724 404.21 723.904 410.593C722.033 413.798 720.495 416.362 719.392 418.105C718.892 419.068 718.272 419.964 717.546 420.771V420.771Z" fill="#455A64"/>
<path d="M1094.92 1100.61C1094.92 1101 864.497 1101.3 580.312 1101.3C296.126 1101.3 65.6493 1101 65.6493 1100.61C65.6493 1100.23 296.023 1099.95 580.312 1099.95C864.6 1099.95 1094.92 1100.38 1094.92 1100.61Z" fill="#263238"/>
<path d="M878.085 346.142L913.848 351.27C921.262 370.943 935.765 387.132 954.508 396.655C973.251 406.178 994.878 408.347 1015.14 402.735C1035.4 397.122 1052.83 384.135 1064 366.326C1075.17 348.516 1079.28 327.173 1075.51 306.489C1071.75 285.806 1060.38 267.278 1043.65 254.549C1026.92 241.819 1006.03 235.808 985.092 237.696C964.154 239.584 944.679 249.236 930.495 264.754C916.311 280.271 908.443 300.533 908.439 321.556L878.085 346.142Z" fill="white"/>
<path d="M878.085 346.142L908.183 321.249C908.249 321.187 908.336 321.153 908.426 321.153C908.517 321.153 908.604 321.187 908.67 321.249V321.402H907.978C907.879 306.53 911.727 291.898 919.13 278.999C921.362 275.12 923.936 271.448 926.821 268.026C928.308 266.309 929.795 264.488 931.384 262.745L936.512 257.618C952.773 243.356 973.86 235.829 995.477 236.57C1007.44 236.953 1019.19 239.88 1029.93 245.158C1041.25 250.815 1051.18 258.904 1059.01 268.847C1067.22 279.192 1072.84 291.347 1075.41 304.303C1078.11 317.518 1077.61 331.186 1073.95 344.168C1070.36 356.521 1064.05 367.91 1055.47 377.496C1047.38 386.624 1037.39 393.863 1026.19 398.698C1006.05 407.321 983.36 407.881 962.815 400.262C954.18 396.899 946.113 392.23 938.896 386.418C927.523 377.151 918.787 365.056 913.567 351.346L913.823 351.552L878.111 346.142L914.002 350.885C914.06 350.891 914.115 350.914 914.16 350.95C914.206 350.987 914.24 351.035 914.259 351.09C919.51 364.761 928.252 376.818 939.614 386.059C946.774 391.758 954.762 396.331 963.302 399.621C983.575 407.058 1005.93 406.434 1025.75 397.878C1036.78 393.121 1046.62 385.986 1054.57 376.983C1062.94 367.501 1069.07 356.261 1072.52 344.091C1076.11 331.326 1076.6 317.886 1073.95 304.892C1071.43 292.143 1065.9 280.18 1057.83 270C1050.16 260.227 1040.43 252.262 1029.34 246.671C1018.77 241.445 1007.21 238.535 995.425 238.134C974.152 237.35 953.376 244.682 937.306 258.643L932.179 263.54C930.615 265.257 929.154 267.052 927.667 268.667C924.827 272.04 922.296 275.661 920.104 279.486C912.722 292.216 908.815 306.662 908.772 321.377C908.776 321.423 908.77 321.469 908.755 321.512C908.74 321.556 908.716 321.596 908.684 321.629C908.653 321.663 908.615 321.69 908.573 321.708C908.531 321.726 908.485 321.736 908.439 321.736C908.36 321.732 908.285 321.702 908.225 321.651C908.164 321.6 908.123 321.531 908.106 321.454V321.454L908.67 321.633L878.085 346.142Z" fill="#263238"/>
<path d="M979.274 337.297C978.465 339.074 977.148 340.571 975.488 341.598C973.829 342.626 971.902 343.139 969.951 343.072C968 343.004 966.113 342.36 964.528 341.221C962.944 340.081 961.733 338.497 961.048 336.669C960.363 334.841 960.236 332.851 960.682 330.951C961.129 329.051 962.128 327.325 963.555 325.993C964.982 324.661 966.771 323.782 968.698 323.466C970.624 323.151 972.601 323.414 974.377 324.223C975.558 324.759 976.621 325.523 977.505 326.471C978.39 327.419 979.08 328.531 979.535 329.746C979.989 330.96 980.2 332.252 980.156 333.547C980.111 334.843 979.811 336.117 979.274 337.297V337.297Z" fill="#263238"/>
<path d="M979.351 333.836C978.403 334.042 975.659 323.941 974.916 311.199C974.172 298.457 973.993 288.382 974.916 288.126C975.839 287.869 977.685 298.38 978.403 310.866C979.12 323.351 980.223 333.503 979.351 333.836Z" fill="#263238"/>
<path d="M1006.58 292.279C1006.96 292.971 999.835 297.124 989.862 296.688C985.595 296.61 981.433 295.35 977.838 293.048C975.07 291.176 974.249 289.1 974.608 288.895C974.967 288.69 976.377 289.843 979.043 290.946C982.53 292.378 986.248 293.169 990.016 293.279C998.963 293.715 1006.22 291.253 1006.58 292.279Z" fill="#263238"/>
<path d="M1010.99 341.527C1010.18 343.304 1008.86 344.801 1007.2 345.829C1005.54 346.856 1003.61 347.369 1001.66 347.302C999.713 347.234 997.826 346.59 996.241 345.451C994.657 344.311 993.445 342.727 992.761 340.899C992.076 339.071 991.949 337.081 992.395 335.181C992.842 333.281 993.841 331.555 995.268 330.223C996.695 328.891 998.484 328.012 1000.41 327.697C1002.34 327.381 1004.31 327.645 1006.09 328.453C1007.27 328.989 1008.33 329.753 1009.22 330.701C1010.1 331.649 1010.79 332.761 1011.25 333.976C1011.7 335.19 1011.91 336.482 1011.87 337.777C1011.82 339.073 1011.52 340.348 1010.99 341.527V341.527Z" fill="#263238"/>
<path d="M1010.99 337.887C1010.06 338.092 1007.32 327.991 1006.58 315.25C1005.83 302.508 1005.65 292.407 1006.58 292.176C1007.5 291.946 1009.35 302.431 1010.04 314.916C1010.73 327.401 1011.96 337.682 1010.99 337.887Z" fill="#263238"/>
<path d="M1007.3 298.996C1007.81 299.714 1001.25 304.123 991.913 304.123C982.581 304.123 976.018 299.714 976.531 298.996C977.044 298.278 983.479 300.765 991.913 300.713C1000.35 300.662 1006.86 298.073 1007.3 298.996Z" fill="#263238"/>
</svg>
