<svg width="44" height="44" viewBox="0 0 44 44" fill="none" xmlns="http://www.w3.org/2000/svg">
<path d="M41.8621 20.2876C41.3946 19.4935 41.4153 18.2973 41.4599 17.3967C41.6146 14.351 40.9649 11.3776 39.2118 8.86479C36.8778 5.51323 33.2443 2.80448 29.1056 1.06854C28.5178 0.821039 27.8199 0.611351 27.1496 0.604476C27.1359 0.601039 27.1187 0.594164 27.1015 0.590726C26.8832 0.544889 26.6581 0.542495 26.4389 0.583681C26.2197 0.624867 26.0108 0.708826 25.824 0.830764C25.6373 0.952701 25.4764 1.11023 25.3506 1.29435C25.2247 1.47847 25.1364 1.68558 25.0906 1.90385L19.484 28.6373C18.0059 27.221 16.0603 26.341 13.9634 25.9732C10.3368 25.3407 6.29432 26.2035 3.57869 28.2832C2.66775 28.981 1.73275 29.9229 1.1415 30.9198C0.533066 31.9476 -0.013496 33.4739 0.000253996 34.6839C0.0311915 37.207 1.12432 39.6717 3.08713 41.277C3.62682 41.7204 4.23525 42.1432 4.85744 42.4595C8.27432 44.2126 12.5506 43.4357 15.7818 41.6345C18.2328 40.2664 20.8624 37.726 21.5878 34.897C21.6462 34.7801 21.6874 34.6564 21.7184 34.5189L26.1149 13.5707C26.3968 13.6223 26.6615 13.6635 26.8609 13.7082C28.0159 13.9523 29.1434 14.3029 30.2228 14.7704C32.2268 15.6435 34.1621 16.9395 35.3378 18.8232C36.5099 20.7104 37.5618 22.5426 39.7274 23.4467C40.6281 23.8248 42.3193 23.897 43.0928 23.2095C44.3681 22.0785 42.3537 21.1195 41.8621 20.2876V20.2876Z" fill="#26798E"/>
</svg>
